<svg xmlns="http://www.w3.org/2000/svg" width="77" height="35" viewBox="0 0 77 35" xmlns:xlink="http://www.w3.org/1999/xlink">
  <defs>
    <polygon id="a" points="0 .057 0 12.413 12.553 12.413 12.553 .057 0 .057"/>
    <polygon id="c" points=".067 12.404 10.15 12.404 10.15 .067 .067 .067 .067 12.404"/>
    <polygon id="e" points="17.311 8.491 17.311 .017 .086 .017 .086 8.491 17.311 8.491"/>
  </defs>
  <g fill="none" fill-rule="evenodd">
    <g transform="translate(0 .091)">
      <mask id="b" fill="white">
        <use xlink:href="#a"/>
      </mask>
      <path fill="#26334D" d="M6.21617898,12.4132184 C7.71019777,12.4132184 8.75770936,12.0217544 9.44452893,11.3919566 C10.4062253,10.5750653 10.7839016,9.50285856 10.886999,8.10711444 C10.9383987,7.44335335 10.9728142,4.46491928 10.9728142,4.22658549 C10.9728142,3.98825169 10.9728142,1.57154113 11.0072297,1.40128161 C11.0586294,1.19705879 11.1101781,0.720538872 11.745598,0.720538872 L12.4495508,0.720538872 C12.535515,0.720538872 12.5526482,0.652464598 12.5526482,0.550279354 L12.5526482,0.175797014 C12.5526482,0.124852058 12.535515,0.0567777839 12.3808688,0.0567777839 C12.2263717,0.0567777839 11.676767,0.107870406 10.4920405,0.107870406 C9.3414315,0.107870406 8.5515145,0.0567777839 8.3798841,0.0567777839 C8.27678667,0.0567777839 8.25965343,0.0907410876 8.25965343,0.175797014 L8.25965343,0.584390324 C8.25965343,0.66944625 8.27678667,0.720538872 8.3798841,0.720538872 L9.13538563,0.720538872 C9.58189285,0.720538872 9.85662067,1.02694694 9.90816939,1.46935589 C9.9597181,1.89493085 9.99398459,2.88208166 9.99398459,4.17549286 L9.99398459,7.81783569 C9.99398459,9.07728359 9.77080547,10.0985454 9.10111915,10.8133991 C8.50011477,11.4259199 7.5041519,11.7493096 6.52532227,11.7493096 C5.5293594,11.7493096 4.4302991,11.4430492 3.79502825,10.5239727 C3.40006975,9.9452675 3.26270583,9.14535787 3.24557259,8.36242988 C3.22829036,7.81783569 3.1596084,5.65629291 3.1596084,4.75419803 L3.1596084,3.63089867 C3.1596084,2.76291476 3.17689063,1.57154113 3.19402388,1.41826326 C3.22829036,1.04378092 3.52030042,0.720538872 4.01820736,0.720538872 L4.87680632,0.720538872 C4.99703699,0.720538872 5.01417023,0.686427902 5.01417023,0.601371976 L5.01417023,0.158815362 C5.01417023,0.0907410876 4.99703699,0.0567777839 4.85967308,0.0567777839 C4.67076045,0.0567777839 3.84642798,0.107870406 2.50705532,0.107870406 C1.16768266,0.107870406 0.326365934,0.0567777839 0.154586548,0.0567777839 C0.0172226339,0.0567777839 -5.95938891e-05,0.0907410876 -5.95938891e-05,0.192926332 L-5.95938891e-05,0.567261006 C-5.95938891e-05,0.686427902 0.0172226339,0.720538872 0.120171077,0.720538872 L0.927370305,0.720538872 C1.45969272,0.720538872 1.57977441,0.992835969 1.57977441,1.58852278 L1.57977441,5.63916359 C1.57977441,7.86892831 1.64845636,9.00920932 1.85465122,9.77515565 C2.12937905,10.8473624 2.73038342,11.5961794 3.89812568,12.0557177 C4.46471458,12.2940515 5.32331353,12.4132184 6.21617898,12.4132184" mask="url(#b)"/>
    </g>
    <path fill="#26334D" d="M19.9486819 6.63579459C19.9486819 5.87767458 19.9112867 4.71273326 20.0047002 3.86202634 20.0419463 3.60316689 20.1352108 3.47381101 20.6016819 3.47381101L20.7882108 3.47381101C20.8628522 3.47381101 20.9000983 3.41828839 20.9000983 3.34430745L20.9000983 2.95609213C20.9000983 2.84504689 20.8628522 2.80813025 20.7695877 2.80813025 20.6389281 2.80813025 19.9859281 2.86350521 19.5940983 2.86350521 18.9971165 2.86350521 18.1948337 2.80813025 18.0643231 2.80813025 17.9710587 2.80813025 17.9336635 2.84504689 17.9336635 2.90056951L17.9336635 3.34430745C17.9336635 3.43674671 17.9710587 3.47381101 18.0643231 3.47381101L18.3813626 3.47381101C18.6985511 3.47381101 18.9784934 3.58470858 19.0717578 3.80665138 19.1650223 4.02844652 19.2210405 5.10109626 19.2210405 5.5448342 19.2582867 6.13653402 19.2769098 6.70992319 19.2769098 7.76381927L19.2769098 8.98428321 19.2024174 8.98428321C18.9784934 8.74388208 17.2434173 6.58027197 16.9076057 6.19205664 16.5157759 5.72971271 14.3702469 3.04853138 14.3143777 2.97455044 14.2395873 2.86350521 14.1276998 2.82658857 13.8665296 2.82658857 13.6426055 2.82658857 13.2507757 2.86350521 12.9523593 2.86350521 12.7470584 2.86350521 12.448642 2.84504689 12.2060949 2.82658857 11.9635477 2.82658857 11.7582468 2.80813025 11.7210006 2.80813025 11.6463592 2.80813025 11.6089641 2.86350521 11.6089641 2.91902782L11.6089641 3.36291344C11.6089641 3.43674671 11.6463592 3.47381101 11.7210006 3.47381101L11.8889064 3.47381101C12.4112468 3.47381101 12.877718 3.7880454 12.877718 4.45387382L12.877718 6.39554113C12.877718 8.48502264 12.8403228 9.79792583 12.8216997 10.0198686 12.7658305 10.4451483 12.4672651 10.5746518 12.2805872 10.5746518L11.8515112 10.5746518C11.7956419 10.5746518 11.7768699 10.5929625 11.7768699 10.6300268L11.7768699 11.110829C11.7768699 11.2032683 11.7956419 11.2403326 11.8328881 11.2403326 11.9821708 11.2403326 12.8216997 11.18481 13.0828699 11.18481 13.6239825 11.18481 14.3702469 11.2403326 14.5009065 11.2403326 14.594171 11.2403326 14.594171 11.2032683 14.594171 11.1292873L14.594171 10.6855494C14.594171 10.6115685 14.594171 10.5746518 14.5009065 10.5746518L14.1090767 10.5746518C13.9223989 10.5746518 13.7172469 10.3711673 13.6612286 9.9458877 13.6239825 9.77946751 13.5493411 7.93023946 13.5493411 6.82082076L13.5493411 4.28745363 13.5865873 4.28745363C13.8851527 4.62029401 15.3964537 6.61733627 15.8441528 7.13505515 16.0494537 7.37545628 16.8515875 8.31860245 17.7098885 9.3355819 18.4746271 10.2418114 19.109153 10.9999315 19.2396636 11.1292873 19.314305 11.18481 19.5008338 11.3143135 19.6688886 11.3143135 19.8926636 11.3143135 19.9486819 11.1292873 19.9486819 10.9628672L19.9486819 6.63579459zM24.0123594 6.45093085C24.0123594 6.32142729 24.0309825 4.12104821 24.0309825 3.93602204 24.0497546 3.54765904 24.2175114 3.47367811 24.7212287 3.47367811L25.0384172 3.47367811C25.1316816 3.47367811 25.1504537 3.41830316 25.1504537 3.34432222L25.1504537 2.90043661C25.1504537 2.84491399 25.1130585 2.80799735 25.0384172 2.80799735 24.8892835 2.80799735 23.9377181 2.86351997 23.3966055 2.86351997 22.5198305 2.88197829 21.3631131 2.80799735 21.2510766 2.80799735 21.1764352 2.80799735 21.139189 2.84491399 21.139189 2.91889492L21.139189 3.34432222C21.139189 3.41830316 21.1578121 3.47367811 21.2510766 3.47367811L21.5868881 3.47367811C22.3705478 3.47367811 22.5384535 3.65870428 22.5384535 3.8620411 22.5384535 4.12104821 22.5756997 5.9701286 22.5756997 6.26590468L22.5756997 7.07969497C22.5756997 7.70831142 22.5570766 10.0568 22.5384535 10.2232202 22.5012074 10.5560606 22.202642 10.5746666 21.7361708 10.5746666L21.3257179 10.5746666C21.2510766 10.5746666 21.2138304 10.6300415 21.2138304 10.6855642L21.2138304 11.0923855C21.2138304 11.1848247 21.2510766 11.2403473 21.3257179 11.2403473 21.4376054 11.2403473 22.5198305 11.1848247 23.1542074 11.1848247 23.9937363 11.1848247 24.9637758 11.2403473 25.1130585 11.2403473 25.206323 11.2403473 25.225095 11.1848247 25.225095 11.1108438L25.225095 10.6671058C25.225095 10.6115832 25.206323 10.5746666 25.1130585 10.5746666L24.8332652 10.5746666C24.2921527 10.5746666 24.0683777 10.3156595 24.0309825 9.89037985 24.0123594 9.61306209 24.0123594 7.48651628 24.0123594 7.37547104L24.0123594 6.45093085zM44.0709622 3.80663662C44.0709622 3.47379624 44.3507555 3.39981531 44.6306978 3.39981531 45.3769623 3.39981531 45.8993028 3.56623549 46.4030201 3.88061755 46.7388317 4.10241269 47.018774 4.60167326 47.018774 5.15645644 47.018774 5.63725869 46.7015855 7.07966543 44.6306978 7.07966543 44.3881507 7.07966543 44.2016218 7.06120712 44.0709622 7.0427488L44.0709622 3.80663662zM42.6530746 6.96876786C42.6343026 8.09664488 42.6530746 9.18775293 42.6343026 10.0938348 42.6343026 10.5006561 42.4103785 10.5746371 41.9628284 10.5746371L41.7389044 10.5746371C41.664263 10.5746371 41.6270168 10.6115537 41.6270168 10.6670763L41.6270168 11.0923559C41.6270168 11.1847952 41.664263 11.2403178 41.7389044 11.2403178 41.869564 11.2403178 42.8209804 11.1847952 43.2873026 11.1847952 43.9030565 11.1847952 44.9104911 11.2403178 45.0411508 11.2403178 45.1530383 11.2403178 45.1904334 11.2032535 45.1904334 11.1108143L45.1904334 10.6670763C45.1904334 10.6115537 45.1530383 10.5746371 45.0785459 10.5746371L44.5933027 10.5746371C44.2202449 10.5746371 44.1083574 10.3711526 44.0709622 10.1122931L44.0709622 8.11525086 44.0709622 7.67136525C44.2016218 7.63430095 44.3693786 7.63430095 44.5560565 7.63430095 45.3397161 7.63430095 45.6195094 8.04126993 46.2911326 9.18775293 46.4590384 9.46507069 47.2799442 10.9628524 47.6345278 11.2218595 47.9515673 11.2032535 48.3994154 11.1847952 48.8284914 11.1847952 49.0150203 11.1847952 49.2390933 11.2032535 49.4067011 11.2032535 49.593379 11.2218595 49.7425127 11.2403178 49.7799078 11.2403178 49.8545492 11.2403178 49.8919443 11.1847952 49.8919443 11.1108143L49.8919443 10.7409096C49.8919443 10.630012 49.8731723 10.5746371 49.7985309 10.5746371 49.4627194 10.5746371 49.2203212 10.5561787 48.959151 10.3711526 48.6045673 10.1122931 48.1754913 9.55750994 47.9143211 9.18775293 47.1492846 8.11525086 46.7760778 7.5418617 46.3470018 7.44942244L46.3470018 7.41250581C47.8210567 6.89478693 48.5485491 6.15512524 48.5485491 4.87913868 48.5485491 4.45385905 48.3061509 3.91753419 47.8955491 3.52931886 47.4290779 3.12249755 46.589549 2.80811549 45.4702268 2.80811549 45.2278286 2.80811549 43.6044911 2.86349044 43.380567 2.86349044 43.0447555 2.86349044 41.8881871 2.80811549 41.7949226 2.80811549 41.7202813 2.80811549 41.6830351 2.84503212 41.6830351 2.90055474L41.6830351 3.34429269C41.6830351 3.41827362 41.7016582 3.47379624 41.7575275 3.47379624L41.9440563 3.47379624C42.4663968 3.47379624 42.6343026 3.67713306 42.6530746 4.04689007L42.6530746 5.82228486 42.6530746 6.96876786zM52.8315321 11.4066937C54.529362 11.4066937 55.4247602 10.2231464 55.4247602 8.83626227 55.4247602 7.91172208 55.2009851 7.44952581 54.8277784 7.06116282 54.3616052 6.58036057 53.671061 6.37687608 52.812909 6.06264169 52.4584744 5.93313813 51.7867022 5.65582037 51.5067599 5.30437401 51.301757 5.06397289 51.2083435 4.67575756 51.2083435 4.3984398 51.2083435 4.06559943 51.5067599 3.27041512 52.5329667 3.27041512 53.0740792 3.27041512 53.4845321 3.45529362 53.7644744 3.76967568 54.1563043 4.21341363 54.305438 4.86063607 54.4174745 5.08257887 54.4360976 5.13795382 54.4734927 5.17501813 54.529362 5.15641214L54.8651736 5.08257887C54.9210428 5.06397289 54.9396659 5.02705625 54.9396659 4.97153364 54.9210428 4.71267419 54.7531371 3.51081624 54.7531371 2.90051044 54.7531371 2.80807119 54.734514 2.73409025 54.5852313 2.73409025 54.4360976 2.73409025 54.3802283 2.73409025 54.3428331 2.78961287L54.2681918 2.91896876C54.2307966 3.01140801 54.1376812 2.99294969 53.9510033 2.88190446 53.7270793 2.77115455 53.3352495 2.641651 52.6263801 2.641651 51.954757 2.641651 51.3576262 2.80807119 50.872681 3.19628652 50.4622281 3.54773288 50.0703982 4.12097438 50.0703982 4.74959083 50.0703982 5.65582037 50.2941733 6.24752019 50.7233983 6.6543415 51.2829849 7.15360207 52.1785321 7.48644245 52.5515898 7.615946 53.5405504 7.98570301 54.2681918 8.44804694 54.2681918 9.50209069 54.2681918 10.2971273 53.3726446 10.7594713 52.7756628 10.7594713 52.0852676 10.7594713 51.4695138 10.3897142 51.1895715 9.83493107 50.8539089 9.22477293 50.8539089 8.83626227 50.8539089 8.57740283 50.8539089 8.50342189 50.7794165 8.46650526 50.7047752 8.44804694L50.3689636 8.41098264C50.2941733 8.41098264 50.2569271 8.46650526 50.238304 8.54048619 50.2196809 8.83626227 50.0890213 10.3157333 50.0331521 10.8334522 50.01438 10.9258914 50.0703982 10.9998724 50.1822858 11.0369367 50.3315685 11.0738533 50.4248329 11.0369367 50.4622281 10.9444974L50.5180973 10.7965356C50.5554925 10.6485737 50.667529 10.667032 50.7980396 10.7594713 51.2269666 11.0923116 51.8799667 11.4066937 52.8315321 11.4066937M58.585188 6.45093085C58.585188 6.32142729 58.6039601 4.12104821 58.6039601 3.93602204 58.6225832 3.54765904 58.790489 3.47367811 59.2942063 3.47367811L59.6113948 3.47367811C59.7048082 3.47367811 59.7234313 3.41830316 59.7234313 3.34432222L59.7234313 2.90043661C59.7234313 2.84491399 59.6861851 2.80799735 59.6113948 2.80799735 59.4621121 2.80799735 58.5105467 2.86351997 57.9695831 2.86351997 57.0926591 2.88197829 55.9360907 2.80799735 55.8240541 2.80799735 55.7495618 2.80799735 55.7121666 2.84491399 55.7121666 2.91889492L55.7121666 3.34432222C55.7121666 3.41830316 55.7307897 3.47367811 55.8240541 3.47367811L56.1598657 3.47367811C56.9433764 3.47367811 57.1112821 3.65870428 57.1112821 3.8620411 57.1112821 4.12104821 57.1486773 5.9701286 57.1486773 6.26590468L57.1486773 7.07969497C57.1486773 7.70831142 57.1299052 10.0568 57.1112821 10.2232202 57.073887 10.5560606 56.7754706 10.5746666 56.3091484 10.5746666L55.8986955 10.5746666C55.8240541 10.5746666 55.786808 10.6300415 55.786808 10.6855642L55.786808 11.0923855C55.786808 11.1848247 55.8240541 11.2403473 55.8986955 11.2403473 56.010583 11.2403473 57.0926591 11.1848247 57.727036 11.1848247 58.5665649 11.1848247 59.5367534 11.2403473 59.6861851 11.2403473 59.7793006 11.2403473 59.7979236 11.1848247 59.7979236 11.1108438L59.7979236 10.6671058C59.7979236 10.6115832 59.7793006 10.5746666 59.6861851 10.5746666L59.4062428 10.5746666C58.8651303 10.5746666 58.6412063 10.3156595 58.6039601 9.89037985 58.585188 9.61306209 58.585188 7.48651628 58.585188 7.37547104L58.585188 6.45093085zM9.24578331 16.5500078C8.96241437 16.5500078 8.702734 16.327622 8.702734 15.9531397 8.702734 15.4032295 8.98595395 14.6892618 9.38746778 14.0573967 9.97774525 13.1095251 10.6034811 12.6647535 11.0994512 12.6647535 11.4890463 12.6647535 11.7014985 12.9572809 11.6897287 13.3200976 11.6897287 14.0925413 10.4737154 16.5500078 9.24578331 16.5500078M9.42292615 17.1117313C11.1349096 17.1117313 12.1620103 14.7828824 12.1620103 13.4956731 12.1620103 12.6998982 11.6897287 12.126509 10.8987688 12.126509 9.32832085 12.126509 8.20676385 14.1275383 8.20676385 15.6021363 8.20676385 16.4915319 8.77350174 17.1117313 9.42292615 17.1117313M28.5057684 17.4086001C28.5057684 17.2792442 28.5245405 15.0787175 28.5245405 14.8936913 28.5431636 14.505476 28.7110694 14.4314951 29.2147867 14.4314951L29.5319752 14.4314951C29.6252396 14.4314951 29.6438627 14.3759724 29.6438627 14.3019915L29.6438627 13.8582536C29.6438627 13.8027309 29.6066166 13.7658143 29.5319752 13.7658143 29.3826925 13.7658143 28.4311271 13.8211893 27.8901636 13.8211893 27.0132395 13.8397952 25.8565221 13.7658143 25.7446346 13.7658143 25.6699932 13.7658143 25.6325981 13.8027309 25.6325981 13.8767119L25.6325981 14.3019915C25.6325981 14.3759724 25.6513701 14.4314951 25.7446346 14.4314951L26.0804461 14.4314951C26.8639568 14.4314951 27.0318626 14.6163736 27.0318626 14.8197104 27.0318626 15.0787175 27.0692577 16.9279456 27.0692577 17.2237216L27.0692577 18.0373643C27.0692577 18.6661284 27.0504857 21.0144693 27.0318626 21.1808895 26.9946164 21.5137299 26.6962 21.5323359 26.2297288 21.5323359L25.8192759 21.5323359C25.7446346 21.5323359 25.7073884 21.5877108 25.7073884 21.6432334L25.7073884 22.0500548C25.7073884 22.142494 25.7446346 22.1980166 25.8192759 22.1980166 25.9311634 22.1980166 27.0132395 22.142494 27.6476164 22.142494 28.4871453 22.142494 29.4573339 22.1980166 29.6066166 22.1980166 29.699881 22.1980166 29.7185041 22.142494 29.7185041 22.0685131L29.7185041 21.6247751C29.7185041 21.5692525 29.699881 21.5323359 29.6066166 21.5323359L29.3266743 21.5323359C28.7855617 21.5323359 28.5617867 21.2733288 28.5245405 20.8480491 28.5057684 20.5707314 28.5057684 18.4441856 28.5057684 18.333288L28.5057684 17.4086001zM32.8628415 14.7643059C32.8628415 14.4314655 33.1426349 14.3574846 33.4225772 14.3574846 34.1688416 14.3574846 34.6911821 14.5239048 35.1948994 14.8382868 35.53086 15.0602296 35.8106533 15.5594902 35.8106533 16.1142734 35.8106533 16.594928 35.4934648 18.0373347 33.4225772 18.0373347 33.18003 18.0373347 32.9933522 18.0188764 32.8628415 18.0004181L32.8628415 14.7643059zM31.3376849 17.9264372C31.3190619 19.0544618 31.3376849 20.1454222 31.3190619 21.0515041 31.3190619 21.4583254 31.0951378 21.5323063 30.6472897 21.5323063L30.4233657 21.5323063C30.3487244 21.5323063 30.3114782 21.569223 30.3114782 21.6247456L30.3114782 22.0500252C30.3114782 22.1424645 30.3487244 22.1979871 30.4233657 22.1979871 30.5540253 22.1979871 31.5055907 22.1424645 31.9719129 22.1424645 32.5876668 22.1424645 33.5951015 22.1979871 33.7256121 22.1979871 33.8374996 22.1979871 33.8748948 22.1609228 33.8748948 22.0684835L33.8748948 21.6247456C33.8748948 21.569223 33.8374996 21.5323063 33.7630072 21.5323063L33.277913 21.5323063C32.9048552 21.5323063 32.7928187 21.3288219 32.7555725 21.0699624L32.7555725 19.0729202 32.7555725 18.6290345C32.8860832 18.5921179 33.0541379 18.5921179 33.2406668 18.5921179 34.0241775 18.5921179 34.3039708 18.9989392 34.9757429 20.1454222 35.1436487 20.42274 35.9645545 21.9205217 36.3189891 22.1795288 36.6361776 22.1609228 37.0838767 22.1424645 37.5129527 22.1424645 37.6996306 22.1424645 37.9234056 22.1609228 38.0914604 22.1609228 38.2779893 22.1795288 38.427123 22.1979871 38.4645181 22.1979871 38.5391595 22.1979871 38.5764057 22.1424645 38.5764057 22.0684835L38.5764057 21.6987265C38.5764057 21.5876813 38.5577826 21.5323063 38.4831412 21.5323063 38.1473297 21.5323063 37.9047825 21.5137004 37.6436123 21.3288219 37.2891777 21.0699624 36.8601017 20.5151792 36.5987825 20.1454222 35.8338949 19.0729202 35.4606882 18.4996787 35.0317611 18.4072394L35.0317611 18.3701751C36.505518 17.8524562 37.2331594 17.1127945 37.2331594 15.836808 37.2331594 15.4115283 36.9907613 14.8752035 36.5801594 14.4869881 36.1138372 14.0801668 35.2743083 13.7657848 34.1548371 13.7657848 33.9122899 13.7657848 32.2891014 13.8211597 32.0651773 13.8211597 31.7293658 13.8211597 30.5726484 13.7657848 30.4795329 13.7657848 30.4047426 13.7657848 30.3673474 13.8027014 30.3673474 13.858224L30.3673474 14.301962C30.3673474 14.3760906 30.3861195 14.4314655 30.4419888 14.4314655L30.6286666 14.4314655C31.1510071 14.4314655 31.3190619 14.6348024 31.3376849 15.004707L31.3376849 16.7799542 31.3376849 17.9264372z"/>
    <path fill="#26334D" d="M45.3430087,19.6276443 C45.3430087,19.3132622 45.6975923,19.2392813 45.8841212,19.2392813 L46.2013097,19.2392813 C46.2573279,19.2392813 46.2947231,19.1839063 46.2947231,19.1283837 L46.2947231,18.6844981 C46.2947231,18.6291231 46.2573279,18.5920588 46.1825376,18.5920588 C46.1080452,18.5920588 45.2685163,18.6291231 44.5781211,18.6291231 C43.5706864,18.6291231 42.6565162,18.5920588 42.5446287,18.5920588 C42.4698383,18.5920588 42.4512152,18.6291231 42.4512152,18.6844981 L42.4512152,19.1283837 C42.4512152,19.1839063 42.4698383,19.220823 42.5446287,19.220823 L42.9923277,19.220823 C43.477422,19.220823 43.906349,19.3503265 43.906349,19.7756061 L43.906349,20.4597452 C43.906349,20.8296499 43.8691028,21.070051 43.6267047,21.2549295 C43.3281393,21.4953306 42.7311575,21.6617508 42.0781575,21.6617508 C41.555817,21.6617508 40.8094036,21.3842854 40.2870631,20.8296499 C39.5595707,20.0713822 39.1491178,19.0174861 39.1491178,17.5935377 C39.1491178,16.7614368 39.5595707,15.781374 40.1191574,15.1710682 C40.8094036,14.4314065 41.537045,14.2280696 42.1154037,14.2280696 C42.9737047,14.2280696 43.4960451,14.5979743 43.9997624,15.1156932 C44.4474615,15.5594311 44.76465,16.1326726 44.8953096,16.4285964 C44.9513279,16.5764106 44.988574,16.5950166 45.0445923,16.5764106 L45.399027,16.465513 C45.4550452,16.4470547 45.4736683,16.4101381 45.4736683,16.3175512 C45.4362731,15.9847108 45.193726,14.2651339 45.193726,14.172547 C45.193726,14.0431911 45.1564798,13.9692102 44.988574,13.9692102 C44.8392914,13.9692102 44.7832731,14.0245852 44.7460269,14.0987138 L44.6527625,14.2651339 C44.6155163,14.3205089 44.540726,14.3205089 44.3915923,14.191153 C44.0370086,13.9321459 43.1603825,13.5993055 42.2648353,13.5993055 C40.9400632,13.5993055 39.8021179,13.9876685 38.9251938,14.7273302 C38.0296466,15.5039085 37.5445524,16.6319332 37.5445524,17.7599579 C37.5445524,19.2023646 37.9176101,20.2008858 38.6638746,21.0145284 C39.5409477,21.9761329 41.0333276,22.3644959 42.0035161,22.3644959 C43.1976287,22.3644959 44.2049144,22.1054888 45.193726,21.6246865 C45.3243856,21.5693116 45.399027,21.513789 45.399027,21.4213497 C45.399027,21.3287628 45.3430087,21.2180129 45.3430087,21.051445 L45.3430087,19.6276443 Z"/>
    <path fill="#26334D" d="M48.9835249 17.4086001C48.9835249 17.2792442 49.002297 15.0787175 49.002297 14.8936913 49.0209201 14.505476 49.1888258 14.4314951 49.6926922 14.4314951L50.0097317 14.4314951C50.1029961 14.4314951 50.1217682 14.3759724 50.1217682 14.3019915L50.1217682 13.8582536C50.1217682 13.8027309 50.084373 13.7658143 50.0097317 13.7658143 49.860598 13.7658143 48.9090325 13.8211893 48.36792 13.8211893 47.4909959 13.8397952 46.3344275 13.7658143 46.222391 13.7658143 46.1477497 13.7658143 46.1105035 13.8027309 46.1105035 13.8767119L46.1105035 14.3019915C46.1105035 14.3759724 46.1291266 14.4314951 46.222391 14.4314951L46.5583516 14.4314951C47.3417132 14.4314951 47.509619 14.6163736 47.509619 14.8197104 47.509619 15.0787175 47.5470142 16.9279456 47.5470142 17.2237216L47.5470142 18.0373643C47.5470142 18.6661284 47.5282421 21.0144693 47.509619 21.1808895 47.4723728 21.5137299 47.1738075 21.5323359 46.7076343 21.5323359L46.2971814 21.5323359C46.222391 21.5323359 46.1851448 21.5877108 46.1851448 21.6432334L46.1851448 22.0500548C46.1851448 22.142494 46.222391 22.1980166 46.2971814 22.1980166 46.4090689 22.1980166 47.4909959 22.142494 48.1253729 22.142494 48.9649018 22.142494 49.9352393 22.1980166 50.084373 22.1980166 50.1777864 22.1980166 50.1964095 22.142494 50.1964095 22.0685131L50.1964095 21.6247751C50.1964095 21.5692525 50.1777864 21.5323359 50.084373 21.5323359L49.8045797 21.5323359C49.2634672 21.5323359 49.0396921 21.2733288 49.002297 20.8480491 48.9835249 20.5707314 48.9835249 18.4441856 48.9835249 18.333288L48.9835249 17.4086001zM59.028358 17.5935525C59.028358 16.8354325 58.9909628 15.6704912 59.0842272 14.8197842 59.1216224 14.5609248 59.2148868 14.4314212 59.681358 14.4314212L59.8680359 14.4314212C59.9425282 14.4314212 59.9797744 14.3760463 59.9797744 14.3020653L59.9797744 13.9137023C59.9797744 13.8028048 59.9425282 13.7657405 59.8492638 13.7657405 59.7186042 13.7657405 59.0656041 13.8212631 58.6737743 13.8212631 58.0769415 13.8212631 57.2745098 13.7657405 57.1439992 13.7657405 57.0508837 13.7657405 57.0134886 13.8028048 57.0134886 13.8583274L57.0134886 14.3020653C57.0134886 14.3945046 57.0508837 14.4314212 57.1439992 14.4314212L57.4611877 14.4314212C57.7783761 14.4314212 58.0581694 14.5423188 58.1514339 14.7642616 58.2446983 14.9862044 58.3007166 16.0587065 58.3007166 16.5025921 58.3379628 17.0942919 58.3567348 17.6675334 58.3567348 18.7215772L58.3567348 19.9420411 58.2819445 19.9420411C58.0581694 19.7014923 56.3230934 17.5380299 55.9872818 17.1498145 55.595601 16.6874706 53.449923 14.0061416 53.3940537 13.9321607 53.3194124 13.8212631 53.2075248 13.7841988 52.9462056 13.7841988 52.7224306 13.7841988 52.3306008 13.8212631 52.0320354 13.8212631 51.8267344 13.8212631 51.5281691 13.8028048 51.2857709 13.7841988 51.0432238 13.7841988 50.8379228 13.7657405 50.8006767 13.7657405 50.7260353 13.7657405 50.6886401 13.8212631 50.6886401 13.8767857L50.6886401 14.3205237C50.6886401 14.3945046 50.7260353 14.4314212 50.8006767 14.4314212L50.9685824 14.4314212C51.4909229 14.4314212 51.957394 14.7458033 51.957394 15.411484L51.957394 17.3531514C51.957394 19.4427805 51.9201479 20.7556837 51.9015248 20.9776265 51.8453575 21.4029062 51.5469411 21.532262 51.3604123 21.532262L50.9311873 21.532262C50.875169 21.532262 50.8565459 21.5507204 50.8565459 21.5877847L50.8565459 22.0685869C50.8565459 22.1610262 50.875169 22.1979428 50.9125642 22.1979428 51.0618469 22.1979428 51.9015248 22.1425678 52.162695 22.1425678 52.7036585 22.1425678 53.449923 22.1979428 53.5805826 22.1979428 53.673996 22.1979428 53.673996 22.1610262 53.673996 22.0870452L53.673996 21.6431596C53.673996 21.5693263 53.673996 21.532262 53.5805826 21.532262L53.1889018 21.532262C53.0022239 21.532262 52.796923 21.3287776 52.7410537 20.9034979 52.7036585 20.7372254 52.6291662 18.8879973 52.6291662 17.778431L52.6291662 15.2450639 52.6664123 15.2450639C52.9649777 15.5780519 54.4761298 17.5750942 54.9238289 18.092813 55.1289808 18.3332142 55.9312635 19.2762127 56.7895645 20.2933398 57.5544521 21.1994217 58.1886801 21.9576893 58.3193397 22.0870452 58.393981 22.1425678 58.5805099 22.2720714 58.7484157 22.2720714 58.9723397 22.2720714 59.028358 22.0870452 59.028358 21.920625L59.028358 17.5935525zM13.4797057 12.7581231L12.4289164 12.7581231C12.3699185 12.7581231 12.3408664 12.7009761 12.364555 12.6190212L12.4117832 12.4201144C12.4354717 12.3381595 12.5169664 12.1506229 12.6114227 12.1506229L13.6386724 12.1506229C13.992809 11.1442755 14.3363678 10.3253169 14.9621036 9.63482814 15.2925518 9.2603458 15.9419762 8.83905317 16.7095455 8.83905317 17.3942792 8.83905317 17.7721045 9.24868014 17.7721045 9.5295419 17.7721045 9.89235858 17.5359637 10.0679341 17.2999719 10.0679341 16.9219977 10.0679341 16.8157716 9.85721395 16.7803132 9.59983117 16.7685434 9.48273161 16.6505475 9.2603458 16.2962618 9.2603458 15.1982444 9.2603458 14.9609118 10.8062668 14.5713167 12.116955 14.5713167 12.116955 16.2122345 12.1605166 17.5516071 12.1605166 18.9940772 12.1605166 19.766712 12.109424 19.9213581 12.109424 20.0758553 12.109424 20.0929885 12.1605166 20.0929885 12.2285909L20.0929885 12.6200549C20.0929885 12.7052585 20.0758553 12.7731851 19.9556246 12.7731851L19.1312921 12.7731851C18.6506674 12.7731851 18.4102061 12.9264629 18.4102061 13.2157417 18.4102061 13.3518902 18.4273393 13.5561131 18.478888 13.7944469 18.5819854 14.4071153 19.2172563 16.4325096 19.5263996 17.3855494 19.7324455 18.0324765 20.7284083 20.9598179 21.1233668 21.9980614 21.5183253 21.1981517 22.857698 17.6921051 22.9950619 17.3004935 23.1666923 16.8409552 23.8192454 14.8836352 24.07684 14.1348182 24.2142039 13.7092433 24.3173013 13.4029829 24.3173013 13.1646491 24.3173013 12.9605739 24.1970707 12.7731851 23.7678457 12.7731851L23.3213385 12.7731851C23.2526565 12.7731851 23.2353743 12.7222401 23.2353743 12.6200549L23.2353743 12.2285909C23.2353743 12.143535 23.2526565 12.109424 23.3384717 12.109424 23.4929689 12.109424 24.2828859 12.1605166 25.3648129 12.1605166 26.6183704 12.1605166 27.0475954 12.109424 27.2020925 12.109424 27.3051899 12.109424 27.3223232 12.143535 27.3223232 12.2285909L27.3223232 12.6540182C27.3223232 12.7222401 27.3051899 12.7731851 27.2020925 12.7731851L26.738601 12.7731851C26.1718632 12.7731851 25.8455866 13.0454822 25.5193101 13.4370938 25.0728029 13.981688 23.6990147 17.470753 23.4071537 18.1856067 23.2011078 18.7473302 20.9860029 24.1596042 20.9000388 24.329716 20.8313568 24.4658646 20.7455416 24.5510681 20.6597264 24.5510681 20.5222135 24.5510681 20.4536805 24.3808086 20.3677163 24.1596042 19.8182607 22.5937482 18.4273393 18.7132192 18.2040112 18.1004031L18.0323808 17.5218456C17.6202891 16.3133427 16.8130898 13.8455395 16.5899107 13.3349086 16.4182803 12.9434446 16.2465009 12.7731851 15.8859579 12.7731851L14.2891397 12.7581231C13.9820821 13.7059946 13.4390328 15.7083529 12.8486064 17.2062822 12.1284142 19.0320313 11.2900772 20.3309062 10.0266867 20.3309062 9.55440516 20.3309062 9.17672889 20.0148998 9.17672889 19.6404174 9.17672889 19.371369 9.37741131 19.1373175 9.68431984 19.1373175 10.0266867 19.1373175 10.2038296 19.4649896 10.2392879 19.6638964 10.2629765 19.780996 10.345514 19.8628032 10.4401193 19.8628032 11.0067082 19.8628032 11.6443629 18.8797871 12.2818685 16.714848L13.4797057 12.7581231zM63.1714145 17.4086001L63.1714145 18.333288C63.1714145 18.4441856 63.1714145 20.5707314 63.1901866 20.8480491 63.2274328 21.2733288 63.4513568 21.5323359 63.9924693 21.5323359L64.2077523 21.5323359C64.5249407 21.5323359 64.8233571 21.3473097 64.9726398 21.1439729 65.1032994 20.996011 66.0545669 18.7770259 66.502415 17.8524857 66.6330746 17.5936263 67.7337737 15.0787175 67.8458102 14.7643354 67.8830564 14.6534379 67.9950929 14.4499534 67.8644333 14.3944308 67.8270381 14.3575141 67.7711688 14.2650749 67.7897919 14.2095523 67.7711688 14.1726356 67.808415 14.117113 67.9764698 14.0801964 68.3309045 14.0246738 68.8533939 13.6918334 69.0212997 13.5438715 69.0585458 13.4698906 69.1331872 13.4143679 69.2450747 13.4143679 69.3569622 13.4143679 69.3943574 13.4883489 69.4316036 13.6178524 69.6927738 14.3575141 70.6441902 17.0017788 70.8867374 17.7414405 71.1666797 18.6661284 71.9689624 20.8480491 72.099622 21.0329276 72.3421691 21.365768 72.6593576 21.5323359 72.9765461 21.5323359L73.3308317 21.5323359C73.4054731 21.5323359 73.4240962 21.5877108 73.4240962 21.6432334L73.4240962 22.0315964C73.4240962 22.0871191 73.4054731 22.1980166 73.2935856 22.1980166 73.0696615 22.1980166 72.0808499 22.142494 71.6517739 22.142494 71.2973393 22.142494 70.1964912 22.1980166 69.953944 22.1980166 69.8232844 22.1980166 69.8046613 22.1055774 69.8046613 22.0315964L69.8046613 21.6432334C69.8046613 21.5877108 69.8232844 21.5323359 69.8980748 21.5323359L70.1964912 21.5323359C70.4204152 21.5323359 70.4950565 21.365768 70.4950565 21.2179538 70.4204152 20.8480491 69.9166978 19.3687258 69.7672662 18.9434461L66.7635852 18.9434461C66.6889438 19.1653889 66.091962 20.7002349 66.0173207 20.9221777 65.9055822 21.2919348 65.9614514 21.5323359 66.3531323 21.5323359L66.8196034 21.5323359C66.9316399 21.5323359 66.950263 21.5877108 66.950263 21.6616918L66.950263 22.0685131C66.950263 22.142494 66.9316399 22.1980166 66.8383755 22.1980166 66.6889438 22.1980166 65.7002812 22.142494 65.4018648 22.142494L62.3132625 22.142494C61.6788856 22.142494 60.5968095 22.1980166 60.485071 22.1980166 60.4102807 22.1980166 60.3730345 22.142494 60.3730345 22.0500548L60.3730345 21.6432334C60.3730345 21.5877108 60.4102807 21.5323359 60.485071 21.5323359L60.8953749 21.5323359C61.3616971 21.5323359 61.6602625 21.5137299 61.6975087 21.1808895 61.7161318 21.0144693 61.7349038 18.6661284 61.7349038 18.0373643L61.7349038 17.2237216C61.7349038 16.9279456 61.6975087 15.0787175 61.6975087 14.8197104 61.6975087 14.6163736 61.5296029 14.4314951 60.7462412 14.4314951L60.4102807 14.4314951C60.3170162 14.4314951 60.2983931 14.3759724 60.2983931 14.3019915L60.2983931 13.8767119C60.2983931 13.8027309 60.3356393 13.7658143 60.4102807 13.7658143 60.5223172 13.7658143 61.6788856 13.8397952 62.5558096 13.8211893 63.0969222 13.8211893 64.0484876 13.7658143 64.1977703 13.7658143 64.2724116 13.7658143 64.3096578 13.8027309 64.3096578 13.8582536L64.3096578 14.3019915C64.3096578 14.3759724 64.2910347 14.4314951 64.1977703 14.4314951L63.8805818 14.4314951C63.3767155 14.4314951 63.2088097 14.505476 63.1901866 14.8936913 63.1901866 15.0787175 63.1714145 17.2792442 63.1714145 17.4086001M67.0435275 18.3517463L69.5808863 18.3517463C69.5062449 18.0928869 68.6294698 15.3191186 68.5920747 15.1711568 68.5546795 15.0602592 68.5360564 14.9862782 68.4801871 14.9862782 68.4241689 14.9862782 68.3867737 15.0416532 68.3309045 15.1896151 68.2748862 15.3375769 67.1367919 18.1667201 67.0435275 18.3517463M29.0456891 2.93750091L29.0456891 3.36278054C29.0456891 3.43676147 28.9898198 3.47367811 28.9151785 3.47367811L28.4859535 3.47367811C28.2434063 3.47367811 27.963613 3.51074241 27.963613 3.75114353 27.963613 4.17642316 28.2808015 4.89762653 28.7845189 6.45093085 28.9338015 6.91327478 29.6240478 9.05827891 29.7359353 9.35420265L29.7919535 9.35420265C29.9039901 8.96583966 30.8180113 6.67287365 30.9114248 6.39540823 31.6202941 4.34284335 31.8628412 3.84358279 31.8628412 3.65870428 31.8628412 3.56626503 31.7883488 3.47367811 31.4711604 3.47367811L31.2658594 3.47367811C31.1912181 3.47367811 31.1538229 3.43676147 31.1538229 3.34432222L31.1538229 2.91889492C31.1538229 2.86351997 31.1912181 2.80799735 31.2658594 2.80799735 31.3777469 2.80799735 32.3479354 2.86351997 32.7770115 2.86351997L35.629026 2.86351997 39.8081965 2.84491399C39.9947253 2.84491399 40.2371235 2.80799735 40.3119138 2.80799735 40.34916 2.80799735 40.3864062 2.84491399 40.4238013 3.0668568 40.4610475 3.23327698 40.9835369 4.8236456 41.0207831 4.95314915 41.0394062 5.02698242 41.0394062 5.06404672 41.00216 5.08250504L40.7035946 5.21200859C40.6663485 5.23046691 40.5917071 5.23046691 40.5356889 5.13802766 40.4984427 5.08250504 39.6028955 4.04691961 39.285707 3.75114353 39.061783 3.54765904 38.7632176 3.47367811 38.5766887 3.47367811L36.5990655 3.43676147 36.5990655 6.58028673C36.711102 6.58028673 37.8118012 6.52491178 37.9609349 6.48784748 38.4460291 6.35849159 38.632707 6.09963215 38.632707 5.52639065 38.632707 5.45240972 38.6513301 5.43380373 38.7259714 5.43380373L39.1364243 5.45240972C39.2110657 5.45240972 39.2670839 5.48932635 39.2484609 5.56330729 39.2110657 5.72972748 39.2110657 6.70979029 39.2110657 6.87621048 39.2110657 7.28303179 39.2670839 7.85627329 39.285707 8.09667441 39.285707 8.17065535 39.2484609 8.18911367 39.1924426 8.18911367L38.8004638 8.2260303C38.7445945 8.2260303 38.7071994 8.2260303 38.6885763 8.15219703 38.5953118 7.6898531 38.4834243 7.39392936 37.99833 7.28303179 37.4385944 7.15352824 36.7855944 7.15352824 36.5990655 7.15352824L36.5990655 7.78244002C36.5990655 8.42951479 36.6364607 9.50216452 36.6364607 9.74241798 36.6364607 10.6115832 37.1774242 10.6671058 37.979707 10.6671058 38.8004638 10.6671058 39.3229532 10.6484999 39.9573302 10.1492393 40.1066129 10.0383417 40.7596129 9.20624078 40.9462907 8.91031704 41.0394062 8.78081348 41.1325217 8.76235517 41.1885399 8.79941947L41.4871053 8.96583966C41.5243515 8.98429797 41.5617466 9.03982059 41.5431235 9.09519554L40.8713514 11.0553212C40.8341053 11.1479081 40.7409898 11.2403473 40.6663485 11.2403473 40.5356889 11.2403473 39.5468772 11.1848247 35.629026 11.1848247 35.2932144 11.1848247 34.2670077 11.2403473 34.0430836 11.2403473 33.9498192 11.2403473 33.9311961 11.1848247 33.9311961 11.1108438L33.9311961 10.6855642C33.9311961 10.6115832 33.9684423 10.5746666 34.0617067 10.5746666L34.2296125 10.5746666C35.1065366 10.5746666 35.1625548 10.500538 35.1625548 10.2416785L35.1625548 7.44945198 35.1625548 6.30296898C35.1625548 5.32290616 35.1437828 4.12104821 35.1251597 3.93602204 35.0692904 3.54765904 34.9572539 3.47367811 34.2109894 3.47367811L34.0643884 3.47367811 34.0244605 3.47367811 33.765972 3.47367811C33.4113884 3.47367811 33.1502182 3.58472334 32.9823124 3.75114353 32.6278777 4.10244223 31.6202941 6.52491178 31.4337652 7.00571403 31.2658594 7.39392936 29.7359353 11.0184045 29.5868016 11.2588057 29.5307833 11.3512449 29.4375189 11.4067675 29.2882362 11.4067675 29.1389535 11.4067675 29.0456891 11.277264 28.9898198 11.1293021 28.5793669 10.0383417 27.5904063 7.35701272 27.4411236 6.95019141L27.310613 6.5433701C26.9935735 5.69281084 26.4338379 4.01000297 26.3031783 3.82512447 26.1538956 3.62163998 26.0046129 3.47367811 25.7620658 3.47367811L25.5755369 3.47367811C25.5010445 3.47367811 25.4822725 3.41830316 25.4822725 3.36278054L25.4822725 2.90043661C25.4822725 2.84491399 25.5196676 2.80799735 25.594309 2.80799735 25.6875734 2.80799735 26.7136312 2.86351997 27.1987255 2.86351997 27.6464246 2.86351997 28.7845189 2.80799735 28.8964064 2.80799735 29.0084429 2.80799735 29.0456891 2.84491399 29.0456891 2.93750091"/>
    <g transform="translate(12.664 22.24)">
      <mask id="d" fill="white">
        <use xlink:href="#c"/>
      </mask>
      <path fill="#26334D" d="M1.80629078,5.51181597 C1.80629078,6.55301273 1.75459308,10.9531802 1.75459308,11.2774559 C1.75459308,11.4993987 1.65134667,11.7383232 1.01413901,11.7383232 L0.187571766,11.7383232 C0.0841763683,11.7383232 0.0670431252,11.7722865 0.0670431252,11.8577854 L0.0670431252,12.2845417 C0.0670431252,12.369893 0.0841763683,12.404004 0.204853994,12.404004 C0.428629047,12.404004 1.04855448,12.3527637 2.40908297,12.3527637 C4.25172602,12.3527637 8.84835166,12.369893 9.29605076,12.404004 C9.39944615,11.9431367 10.0882025,8.97681128 10.1399002,8.85734905 C10.1571825,8.75486847 10.1571825,8.88776836 10.1054848,8.85365739 L9.82986302,8.75117681 C9.76103208,8.71721351 9.7266166,8.75117681 9.69220113,8.81954642 C9.45114385,9.48522717 8.41778582,11.5333621 7.40171001,11.6870829 C6.86789775,11.7553049 3.82116017,11.7213416 3.442441,11.6870829 C3.39059432,10.9872912 3.39059432,7.30035307 3.39059432,7.01033599 L3.39059432,5.39235374 C3.39059432,4.19758378 3.442441,1.62021202 3.442441,1.39826922 C3.442441,0.90329098 3.51127194,0.732588462 4.04508421,0.732588462 L5.07829326,0.732588462 C5.21610413,0.732588462 5.25066858,0.681348173 5.25066858,0.595996914 L5.25066858,0.203499256 C5.25066858,0.118147997 5.23338635,0.0669077084 5.09557549,0.0669077084 C4.94063137,0.0669077084 4.21731054,0.118147997 2.54689383,0.118147997 C1.1175344,0.118147997 0.497459989,0.0669077084 0.308100407,0.0669077084 C0.204853994,0.0669077084 0.187571766,0.101018679 0.187571766,0.186369938 L0.187571766,0.561885944 C0.187571766,0.647237203 0.204853994,0.732588462 0.308100407,0.732588462 L1.1175344,0.732588462 C1.63421342,0.732588462 1.72017761,0.90329098 1.75459308,1.34702893 C1.77187531,1.65432299 1.80629078,3.46353342 1.80629078,4.55597046 L1.80629078,5.51181597 Z" mask="url(#d)"/>
    </g>
    <path fill="#26334D" d="M25.9156988 28.118544C25.9156988 27.9877115 25.9344709 25.7634104 25.9344709 25.5766123 25.953243 25.1839669 26.1230856 25.1093953 26.6323153 25.1093953L26.9527815 25.1093953C27.0470888 25.1093953 27.0660099 25.0531344 27.0660099 24.9784151L27.0660099 24.5298042C27.0660099 24.4738385 27.0281678 24.4363312 26.9527815 24.4363312 26.8020089 24.4363312 25.8401636 24.4924445 25.2933896 24.4924445 24.4070795 24.5111982 23.2378474 24.4363312 23.124768 24.4363312 23.0492328 24.4363312 23.0115396 24.4738385 23.0115396 24.5485578L23.0115396 24.9784151C23.0115396 25.0531344 23.0304607 25.1093953 23.124768 25.1093953L23.4641552 25.1093953C24.256158 25.1093953 24.4258516 25.2961935 24.4258516 25.5017453 24.4258516 25.7634104 24.4635447 27.6325735 24.4635447 27.9315982L24.4635447 28.7539532C24.4635447 29.3893623 24.4447727 31.7632495 24.4258516 31.9314417 24.3881585 32.2678261 24.0864644 32.2865797 23.6149278 32.2865797L23.2001543 32.2865797C23.124768 32.2865797 23.0869259 32.3425454 23.0869259 32.3986586L23.0869259 32.80991C23.0869259 32.9033829 23.124768 32.9594962 23.2001543 32.9594962 23.3132337 32.9594962 24.4070795 32.9033829 25.0481608 32.9033829 25.8967778 32.9033829 26.8773952 32.9594962 27.0281678 32.9594962 27.1224751 32.9594962 27.1413961 32.9033829 27.1413961 32.8285159L27.1413961 32.379905C27.1413961 32.3239394 27.1224751 32.2865797 27.0281678 32.2865797L26.7453948 32.2865797C26.1984718 32.2865797 25.972164 32.0249146 25.9344709 31.5950573 25.9156988 31.3146386 25.9156988 29.1652045 25.9156988 29.0529779L25.9156988 28.118544zM62.9773321 29.1090912C63.4110267 28.4549284 65.5985693 25.4084201 65.8813423 25.2588339 66.0511849 25.1653609 66.2585717 25.1093953 66.5602657 25.1093953L66.7488804 25.1093953C66.8242666 25.1093953 66.8619598 25.071888 66.8619598 24.9784151L66.8619598 24.5859175C66.8619598 24.4738385 66.8242666 24.4363312 66.7299593 24.4363312 66.6168799 24.4363312 65.9568776 24.4924445 65.6174904 24.4924445 65.0517954 24.4924445 64.1088711 24.4363312 63.9956427 24.4363312 63.9013354 24.4363312 63.8636422 24.4924445 63.8636422 24.5673115L63.8636422 24.9784151C63.8636422 25.0531344 63.9013354 25.1093953 63.9956427 25.1093953L64.2973368 25.1093953C64.7122592 25.1093953 64.6931892 25.3523068 64.5425656 25.6513315 64.4671794 25.8009177 62.9017969 28.0624308 62.6191729 28.5296477 62.3173298 28.0811844 60.7520963 25.5952182 60.6390169 25.4270261 60.5636306 25.3147995 60.5825517 25.1093953 60.9217899 25.1093953L61.2047119 25.1093953C61.3177913 25.1093953 61.3367124 25.0531344 61.3367124 24.9784151L61.3367124 24.5673115C61.3367124 24.4738385 61.2800982 24.4363312 61.2047119 24.4363312 61.0728604 24.4363312 59.7902509 24.4924445 59.3756265 24.4924445 58.9230109 24.4924445 57.9423934 24.4363312 57.829165 24.4363312 57.7159366 24.4363312 57.6785415 24.4924445 57.6785415 24.5485578L57.6785415 24.9596615C57.6785415 25.071888 57.7159366 25.1093953 57.810244 25.1093953L58.0743939 25.1093953C58.2251664 25.1093953 58.5647026 25.1466073 58.7531683 25.3335531 59.0548623 25.6139719 61.3554844 28.959505 61.525327 29.296037L61.525327 29.9689534C61.525327 31.0715795 61.525327 31.7444959 61.506406 31.9126881 61.4876339 32.1743532 61.3744055 32.2865797 60.7710174 32.2865797L60.4880954 32.2865797C60.4127091 32.2865797 60.375016 32.3425454 60.375016 32.3986586L60.375016 32.80991C60.375016 32.9219889 60.4127091 32.9594962 60.5070164 32.9594962 60.6200958 32.9594962 61.7139417 32.9033829 62.1288641 32.9033829 62.7510243 32.9033829 63.807028 32.9594962 63.9202564 32.9594962 64.0333358 32.9594962 64.071178 32.9033829 64.071178 32.8285159L64.071178 32.379905C64.071178 32.3239394 64.0333358 32.2865797 63.9390285 32.2865797L63.6939486 32.2865797C63.3544125 32.2865797 63.0527184 32.2678261 63.0151742 31.8753284 62.9773321 31.651023 62.9961042 31.1462987 62.9773321 30.6790818L62.9773321 29.1090912zM30.5516862 27.29613C30.5516862 26.5111347 30.5516862 25.4830803 30.5704583 25.2401688 30.5893794 25.1093363 30.6270725 25.0158633 30.7401519 24.9971097 30.8533803 24.9785037 30.9853808 24.9785037 31.1550744 24.9785037 31.5133826 24.9785037 32.2299991 25.1093363 32.6070795 25.3896074 33.0784671 25.7447454 33.1729235 26.2119623 33.1729235 26.60446 33.1729235 26.9971053 32.9843088 27.4830759 32.475079 27.8380662 32.0979987 28.0811253 31.4190753 28.1558446 30.5516862 28.0997313L30.5516862 27.29613zM30.5516862 28.6791748C31.1550744 28.6791748 31.7019973 28.6605688 32.3430785 28.8847266 33.0596951 29.1277858 33.5689248 29.7072293 33.5689248 30.6604168 33.5689248 31.9127767 32.6070795 32.3985996 31.7586115 32.3985996 30.8156872 32.3985996 30.5516862 31.8752694 30.5516862 30.9781951L30.5516862 28.6791748zM27.8927559 24.9785037C27.8927559 25.0905826 27.8927559 25.1093363 27.9870632 25.1093363L28.3452225 25.1093363C28.7035308 25.1093363 29.061839 25.1279422 29.0995322 25.763499 29.1184532 25.9690508 29.1561463 27.2773764 29.1561463 27.744741L29.1561463 29.1277858C29.1561463 30.1183329 29.1561463 31.5576386 29.0995322 31.8193038 29.0430669 32.0622152 28.8732244 32.2865207 28.5904514 32.2865207L28.0812216 32.2865207C27.9681422 32.2865207 27.9493701 32.3051267 27.9493701 32.3799936L27.9493701 32.7724913C27.9493701 32.9033238 27.9681422 32.9594371 28.1001426 32.9594371 28.4207578 32.9594371 29.0995322 32.9033238 29.6087619 32.9033238 30.2499922 32.9033238 30.8721524 32.9594371 31.5133826 32.9594371 32.7956941 32.9594371 33.6820043 32.7724913 34.191234 32.5108261 34.8133942 32.2304074 35.1718515 31.3706928 35.1718515 30.71653 35.1718515 29.4641701 34.3420066 28.7540418 32.8900015 28.3240368L32.8900015 28.2868248C34.0780056 27.8568199 34.6438496 27.5577951 34.6438496 26.3801545 34.6438496 25.6886321 34.3796997 25.1279422 33.6632322 24.7541982 33.2293887 24.5298928 32.4373859 24.4364198 31.3813822 24.4364198 30.9287666 24.4364198 30.193378 24.4925331 29.7784555 24.4925331 29.4579894 24.4925331 28.1755289 24.4364198 28.0058353 24.4364198 27.911528 24.4364198 27.8927559 24.4737795 27.8927559 24.5672524L27.8927559 24.9785037zM53.3974953 25.4456911L53.3974953 28.7166526C53.5294957 28.7352586 53.7179614 28.7540122 53.9631903 28.7540122 56.0564256 28.7540122 56.3768918 27.2961005 56.3768918 26.8101299 56.3768918 26.2494401 56.0941187 25.7447158 55.7545826 25.5204104 55.2455018 25.2027796 54.7174999 25.0345875 53.9631903 25.0345875 53.6802683 25.0345875 53.3974953 25.1093067 53.3974953 25.4456911M51.9642622 28.6417857L51.9642622 27.4830463 51.9642622 25.6886026C51.9454902 25.3148585 51.7757966 25.1093067 51.2476457 25.1093067L51.05918 25.1093067C51.0025659 25.1093067 50.9836448 25.0531934 50.9836448 24.9784742L50.9836448 24.5298632C50.9836448 24.4737499 51.0214869 24.4363903 51.0968732 24.4363903 51.1910315 24.4363903 52.3602636 24.4925036 52.6996508 24.4925036 52.9259586 24.4925036 54.5665784 24.4363903 54.8118072 24.4363903 55.9433462 24.4363903 56.7918142 24.7541687 57.2632019 25.16542 57.6779753 25.5579177 57.9232042 26.0998539 57.9232042 26.5298588 57.9232042 27.8194307 57.1878156 28.5670664 55.6979684 29.0903966 56.1318119 29.2212291 56.5090412 29.8006726 57.2821229 30.8846927 57.5462728 31.2585844 57.9798184 31.8192742 58.3381266 32.0809393 58.6022766 32.2678852 58.8473564 32.2866388 59.1865946 32.2866388 59.2621299 32.2866388 59.281051 32.3426044 59.281051 32.454831L59.281051 32.828575C59.281051 32.9032943 59.2433578 32.9594076 59.1678226 32.9594076 59.1301294 32.9594076 58.9793569 32.9406539 58.7907422 32.9219003 58.6210486 32.9219003 58.3945919 32.9032943 58.2061262 32.9032943 57.7724316 32.9032943 57.3198161 32.9219003 56.9993499 32.9406539 56.6410417 32.6789888 55.8111968 31.1651115 55.6416521 30.8846927 54.9627288 29.7259534 54.6796578 29.3147021 53.887655 29.3147021 53.6991893 29.3147021 53.5294957 29.3147021 53.3974953 29.3520617L53.3974953 29.8006726 53.3974953 31.8192742C53.4351884 32.0809393 53.5484168 32.2866388 53.9254971 32.2866388L54.4158058 32.2866388C54.4911921 32.2866388 54.5288853 32.3239984 54.5288853 32.3799641L54.5288853 32.828575C54.5288853 32.9219003 54.4911921 32.9594076 54.3779637 32.9594076 54.2459633 32.9594076 53.2276527 32.9032943 52.6054925 32.9032943 52.2878571 32.9032943 51.8623567 32.9161413 51.3884363 32.9455269 51.2331942 32.9483326 51.1455912 32.9492186 50.9903491 32.9490709 50.474266 32.9484802 49.9815735 32.9032943 49.6681097 32.9032943 49.3099504 32.9032943 48.1971835 32.9594076 47.9519547 32.9594076 47.8201032 32.9594076 47.8011821 32.8659346 47.8011821 32.7912154L47.8011821 32.39857C47.8011821 32.3426044 47.8201032 32.2866388 47.8954895 32.2866388L48.1971835 32.2866388C48.4234913 32.2866388 48.4988776 32.118299 48.4988776 31.9687128 48.4234913 31.5949687 47.9142615 30.0996974 47.763489 29.6698401L44.7274783 29.6698401C44.6519431 29.8941456 44.048406 31.4453825 43.9730197 31.669688 43.8597913 32.0435797 43.9164055 32.2866388 44.3125559 32.2866388L44.7839435 32.2866388C44.8970229 32.2866388 44.915795 32.3426044 44.915795 32.4173237L44.915795 32.828575C44.915795 32.9032943 44.8970229 32.9594076 44.8028646 32.9594076 44.7388012 32.9594076 43.6880119 32.9168796 42.974971 32.9145169 42.3344857 32.9124496 41.9773693 32.9391772 41.3330104 32.9406539 40.9747021 32.6789888 40.1448572 31.1651115 39.9751636 30.8846927 39.2963892 29.7259534 39.0134672 29.3147021 38.2214645 29.3147021 38.0328498 29.3147021 37.8631562 29.3147021 37.7311557 29.3520617L37.7311557 29.8006726 37.7311557 31.8192742C37.7688489 32.0809393 37.8819283 32.2866388 38.2591576 32.2866388L38.7494663 32.2866388C38.8248526 32.2866388 38.8623967 32.3239984 38.8623967 32.3799641L38.8623967 32.828575C38.8623967 32.9219003 38.8248526 32.9594076 38.7117732 32.9594076 38.5796237 32.9594076 37.5614621 32.9032943 36.939153 32.9032943 36.4676163 32.9032943 35.5059199 32.9594076 35.3739195 32.9594076 35.2985332 32.9594076 35.2608401 32.9032943 35.2608401 32.809969L35.2608401 32.3799641C35.2608401 32.3239984 35.2985332 32.2866388 35.3739195 32.2866388L35.6002273 32.2866388C36.0528428 32.2866388 36.2791506 32.2117719 36.2791506 31.8005206 36.2979227 30.8846927 36.2791506 29.781919 36.2979227 28.6417857L36.2979227 27.4830463 36.2979227 25.6886026C36.2791506 25.3148585 36.109308 25.1093067 35.5814552 25.1093067L35.3926915 25.1093067C35.3362263 25.1093067 35.3173053 25.0531934 35.3173053 24.9784742L35.3173053 24.5298632C35.3173053 24.4737499 35.3549984 24.4363903 35.4305337 24.4363903 35.524841 24.4363903 36.6939241 24.4925036 37.0334603 24.4925036 37.2596191 24.4925036 38.9002389 24.4363903 39.1454677 24.4363903 40.2770067 24.4363903 41.1254747 24.7541687 41.5968623 25.16542 42.0117848 25.5579177 42.2570136 26.0998539 42.2570136 26.5298588 42.2570136 27.8194307 41.5214761 28.5670664 40.0316288 29.0903966 40.4654724 29.2212291 40.8425527 29.8006726 41.6157834 30.8846927 41.8797843 31.2585844 42.3136278 31.8192742 42.6717871 32.0809393 42.7887401 32.039888 42.8626365 31.9681221 42.917016 31.8939935 43.0490164 31.7445549 44.0107128 29.5016479 44.4633284 28.5670664 44.5953289 28.3054013 45.7079468 25.7634695 45.8211752 25.4456911 45.8588683 25.3336122 45.9719477 25.1280604 45.8397983 25.0719471 45.8022541 25.0345875 45.7456399 24.9411145 45.76471 24.8850013 45.7456399 24.8476416 45.783482 24.7915283 45.9531756 24.7541687 46.3113349 24.6980554 46.8393368 24.361671 47.0091793 24.2120848 47.0467235 24.1373656 47.1222587 24.0812523 47.2354871 24.0812523 47.3484176 24.0812523 47.3862597 24.1561192 47.4239528 24.2868041 47.6879537 25.0345875 48.6497991 27.7072041 48.894879 28.4549875 49.177801 29.3894213 49.9885758 31.5949687 50.1207253 31.7819146 50.3658051 32.118299 50.6864203 32.2866388 51.0070354 32.2866388L51.2665668 32.2866388C51.7190334 32.2866388 51.9454902 32.2117719 51.9454902 31.8005206 51.9642622 30.8846927 51.9454902 29.781919 51.9642622 28.6417857M45.0101023 29.0717906L47.5748743 29.0717906C47.4994881 28.8101255 46.613178 26.0063809 46.5754848 25.8569424 46.5376427 25.7447158 46.5188706 25.6699966 46.4622564 25.6699966 46.4056422 25.6699966 46.3679491 25.7261099 46.3113349 25.8755484 46.2548697 26.0251346 45.1045586 28.8846971 45.0101023 29.0717906M37.7311557 25.4456911L37.7311557 28.7166526C37.8631562 28.7352586 38.0517709 28.7540122 38.2968507 28.7540122 40.3900861 28.7540122 40.7107012 27.2961005 40.7107012 26.8101299 40.7107012 26.2494401 40.4276302 25.7447158 40.088392 25.5204104 39.5791622 25.2027796 39.0511604 25.0345875 38.2968507 25.0345875 38.0140777 25.0345875 37.7311557 25.1093067 37.7311557 25.4456911"/>
    <g transform="translate(59.445 2.749)">
      <mask id="f" fill="white">
        <use xlink:href="#e"/>
      </mask>
      <path fill="#26334D" d="M0.712921695,0.0314234393 C0.736163312,0.0150324536 0.729012045,0.014884787 0.785477255,0.0210867816 C1.07584848,0.0531304204 2.1346829,0.151624001 4.18411675,0.151624001 L4.93053021,0.151624001 C5.54017569,0.151624001 6.19690035,0.126816023 6.90785545,0.0977257149 C7.2652698,0.0875367238 9.45683507,0.1145597 9.90453416,0.1145597 C10.3149871,0.1145597 11.583741,0.0590370819 11.7144006,0.0590370819 C11.7888929,0.0590370819 11.8449112,0.0959537164 11.8449112,0.188540636 L11.8449112,0.595361948 C11.8449112,0.669342884 11.8262881,0.724717835 11.7144006,0.724717835 L11.4344583,0.724717835 C11.0986467,0.724717835 11.0800236,0.928202325 11.154665,1.03909989 C11.2665525,1.20552008 12.8150997,3.66505394 13.1135161,4.10879189 C13.3934584,3.64659562 14.9420056,1.40900457 15.016498,1.2610427 C15.1657807,0.965118959 15.1845527,0.724717835 14.7740998,0.724717835 L14.4755344,0.724717835 C14.38227,0.724717835 14.3448748,0.669342884 14.3448748,0.595361948 L14.3448748,0.188540636 C14.3448748,0.1145597 14.38227,0.0590370819 14.4755344,0.0590370819 C14.5875709,0.0590370819 15.5203643,0.1145597 16.0800999,0.1145597 C16.4157625,0.1145597 17.0689115,0.0590370819 17.18065,0.0590370819 C17.2739145,0.0590370819 17.3114586,0.0959537164 17.3114586,0.206998953 L17.3114586,0.595361948 C17.3114586,0.687801201 17.2739145,0.724717835 17.1994221,0.724717835 L17.0128932,0.724717835 C16.7143279,0.724717835 16.5090269,0.780240454 16.3411211,0.872679707 C16.0614768,1.02064158 13.8970268,4.03481095 13.4680997,4.68203339 L13.4680997,6.2353377 C13.4867228,6.69768163 13.4680997,7.1969422 13.5053459,7.41873734 C13.5425921,7.80710033 13.8411575,7.82570632 14.1769691,7.82570632 L14.4195162,7.82570632 C14.5127806,7.82570632 14.5501758,7.86262295 14.5501758,7.91814557 L14.5501758,8.36188352 C14.5501758,8.43586445 14.5127806,8.49138707 14.4008931,8.49138707 C14.2890056,8.49138707 13.2440267,8.43586445 12.6284218,8.43586445 C12.2181179,8.43586445 11.1358929,8.49138707 11.0240054,8.49138707 C10.9307409,8.49138707 10.8934947,8.45432277 10.8934947,8.3434252 L10.8934947,7.93660389 C10.8934947,7.88108127 10.9307409,7.82570632 11.0053823,7.82570632 L11.2851756,7.82570632 C11.8823064,7.82570632 11.9941939,7.71466108 12.012817,7.45580164 C12.0314401,7.28938145 12.0314401,6.6237007 12.0314401,5.53259265 L12.0314401,4.86691189 C11.8636833,4.53407152 9.58734569,1.22412607 9.28892929,0.946660642 C9.13100548,0.790281778 8.86611064,0.739632156 8.69820486,0.727818833 C8.80904949,1.22899906 8.95967305,1.88581982 9.01911795,2.20418888 C9.03774104,2.27802215 9.00034588,2.31508645 8.92585352,2.35200308 L8.60866504,2.44459 C8.49662853,2.48150664 8.44075926,2.46304832 8.40336409,2.37060907 C8.17958904,1.90826514 7.86240057,1.29795934 7.47057075,0.946660642 C7.00424856,0.780240454 5.63925054,0.761782136 5.30343897,0.761782136 L5.30343897,3.86839076 C5.30343897,5.81005807 5.30343897,7.1969422 5.32206206,7.3447564 C5.35930824,7.64068014 5.45272166,7.82570632 5.75128705,7.82570632 L6.46015636,7.82570632 C6.55356978,7.82570632 6.59081596,7.88108127 6.59081596,7.99197884 L6.59081596,8.38034183 C6.59081596,8.43586445 6.55356978,8.49138707 6.46015636,8.49138707 C6.32964574,8.49138707 5.17292835,8.43586445 4.55732348,8.43586445 C4.03483406,8.43586445 2.82209841,8.49138707 2.67281572,8.49138707 C2.5609282,8.49138707 2.52368201,8.43586445 2.52368201,8.32481922 L2.52368201,7.9550622 C2.52368201,7.86262295 2.5609282,7.82570632 2.63556954,7.82570632 L3.38183402,7.82570632 C3.66162733,7.82570632 3.79228693,7.67774445 3.81091002,7.52978257 C3.86692827,6.82703752 3.86692827,5.84697471 3.86692827,4.73755601 L3.86692827,0.761782136 C3.51249362,0.761782136 2.46483305,0.743176153 1.77458683,0.928202325 C1.30811566,1.27950102 0.916285841,1.8713485 0.673738713,2.35200308 C0.636492532,2.42598402 0.580474277,2.48150664 0.50583293,2.44459 L0.169872381,2.31508645 C0.0766079444,2.27802215 0.0766079444,2.20418888 0.0953800195,2.13006028 C0.203244959,1.79426657 0.527435715,0.653837897 0.678953178,0.0943293845 C0.686998353,0.0649437434 0.689978048,0.0473714254 0.712921695,0.0314234393" mask="url(#f)"/>
    </g>
  </g>
</svg>
