<svg xmlns="http://www.w3.org/2000/svg" width="165" height="121" viewBox="0 0 165 121" xmlns:xlink="http://www.w3.org/1999/xlink">
  <defs>
    <polygon id="a" points="0 .122 0 26.683 26.941 26.683 26.941 .122 0 .122"/>
    <polygon id="c" points=".144 26.663 21.785 26.663 21.785 .144 .144 .144 .144 26.663"/>
    <polygon id="e" points="37.154 18.253 37.154 .037 .184 .037 .184 18.253 37.154 18.253"/>
  </defs>
  <g fill="none" fill-rule="evenodd">
    <g fill="#26334D" transform="translate(60.738)">
      <polygon points="31.853 40.505 35.827 40.505 35.827 21.714 31.853 21.714"/>
      <polygon points="10.403 40.505 14.249 40.505 14.249 21.714 10.403 21.714"/>
      <polygon points="15.573 40.505 19.675 40.505 19.675 21.714 15.573 21.714"/>
      <polygon points="21.001 40.505 25.102 40.505 25.102 21.714 21.001 21.714"/>
      <polygon points="26.426 40.505 30.527 40.505 30.527 21.714 26.426 21.714"/>
      <polyline points="34.119 20.387 12.023 20.387 23.364 13.456 34.119 20.387"/>
      <polyline points="9.478 20.387 .013 20.387 .013 13.385 20.937 13.385 9.478 20.387"/>
      <polyline points="25.704 13.385 46.091 13.385 46.091 20.387 36.568 20.387 25.704 13.385"/>
      <path d="M43.1729381 12.0571411L2.92973889 12.0571411C6.87051382 4.99626662 14.4044315.225025379 23.0506305.225025379 31.6961214.225025379 39.2307472 4.99626662 43.1729381 12.0571411M3.11240506 35.148261L2.76618894 36.2009579 3.66748367 35.5504939 4.56877841 36.2009579 4.22468631 35.148261 5.12598104 34.497797 4.01157577 34.497797 3.66748367 33.4458034 3.32339158 34.497797 2.20898631 34.497797 3.11240506 35.148261 3.11240506 35.148261zM.00778809274 29.1738372L.910498843 29.8243012.56428272 30.876998 1.46557745 30.2265341 2.36687219 30.876998 2.02278009 29.8243012 2.92407482 29.1738372 1.81037756 29.1738372 1.46557745 28.1218436 1.12148536 29.1738372.00778809274 29.1738372.00778809274 29.1738372zM9.07950012 40.5038651L7.86101761 40.5038651 7.51904954 39.4589034 8.42034427 38.8084395 7.305939 38.8084395 6.9618469 37.7564458 6.61775481 38.8084395 5.50334954 38.8084395 6.40676829 39.4589034 6.0626762 40.5038651.0127441518 40.5038651.00778809274 29.1738372.0127441518 25.0889234.858106219 24.478542 1.75940095 25.129006 1.41530885 24.0770124 2.31589558 23.4265484 1.20219832 23.4265484.858106219 22.3738515.700928347 22.8541401.483569759 23.4265484.0127441518 23.4265484.0127441518 21.7142459 9.07950012 21.7142459 9.07950012 40.5038651 9.07950012 40.5038651zM7.85322952 40.5038651L6.07046429 40.5038651 6.9618469 39.8611363 7.85322952 40.5038651 7.85322952 40.5038651zM.0127441518 24.9595338L.0127441518 23.8681607.278247313 24.0594323.0849610117 24.6452015.0127441518 24.9595338.0127441518 24.9595338z"/>
      <polygon points=".042 46.819 9.08 46.819 9.08 41.832 .042 41.832"/>
      <polygon points="37.15 46.819 46.091 46.819 46.091 41.832 37.15 41.832"/>
      <path d="M29.2662365 45.3538652L30.1689473 44.7034012 29.054542 44.7034012 28.7104499 43.6507043 28.3663578 44.7034012 27.2526605 44.7034012 28.1539553 45.3538652 27.8091552 46.4058588 28.7104499 45.7553948 29.6117446 46.4058588 29.2662365 45.3538652 29.2662365 45.3538652zM22.5330763 46.0521471L22.2803173 46.8200462 10.4027679 46.8200462 10.4027679 41.8315148 11.8683453 41.8315148 11.6127543 42.6127748 10.498349 42.6127748 11.4017678 43.2632388 11.0555517 44.3152324 11.9568464 43.6647684 12.8581411 44.3152324 12.514049 43.2625356 13.4153438 42.6127748 12.3009385 42.6127748 12.0460554 41.8315148 34.1182183 41.8315148 33.8626272 42.6127748 32.74893 42.6127748 33.6502247 43.2625356 33.3061326 44.3152324 34.2074274 43.6647684 35.1087221 44.3152324 34.762506 43.2632388 35.6652167 42.6127748 34.5515195 42.6127748 34.2959284 41.8315148 35.8266426 41.8315148 35.8266426 46.8200462 23.8967006 46.8200462 23.6453576 46.0521471 24.5466523 45.4016831 23.432955 45.4016831 23.0881549 44.3496894 22.7440628 45.4016831 21.6303656 45.4016831 22.5330763 46.0521471 22.5330763 46.0521471zM16.7366113 45.3538652L16.3903952 46.4058588 17.2916899 45.7553948 18.1929846 46.4058588 17.8488926 45.3538652 18.7501873 44.7034012 17.635782 44.7034012 17.2916899 43.6507043 16.9475978 44.7034012 15.8339006 44.7034012 16.7366113 45.3538652 16.7366113 45.3538652zM23.600753 46.8200462L22.5812209 46.8200462 23.0881549 46.4543799 23.600753 46.8200462 23.600753 46.8200462zM43.0518687 35.148261L43.9552874 34.497797 42.8408822 34.497797 42.4967901 33.4458034 42.152698 34.497797 41.0382927 34.497797 41.9395874 35.148261 41.5954953 36.2009579 42.4967901 35.5504939 43.3980848 36.2009579 43.0518687 35.148261 43.0518687 35.148261zM40.1008895 40.5038651L39.7575054 39.4589034 40.6602162 38.8084395 39.5465189 38.8084395 39.2024268 37.7564458 38.8576267 38.8084395 37.7439295 38.8084395 38.6452242 39.4589034 38.3032561 40.5038651 39.2024268 39.8611363 40.0938095 40.5038651 40.1008895 40.5038651 40.1008895 40.5038651zM46.0906409 40.5038651L37.1499104 40.5038651 37.1499104 21.7142459 46.0906409 21.7142459 46.0906409 23.4265484 45.6502596 23.4265484 45.3061675 22.3738515 44.9620754 23.4265484 43.8476702 23.4265484 44.7489649 24.0770124 44.4048728 25.129006 45.3061675 24.478542 46.0906409 25.0446215 46.0906409 29.1745404 45.0427884 29.1738372 44.6979883 28.1218436 44.3538962 29.1738372 43.2401989 29.1738372 44.1414937 29.8243012 43.7966935 30.876998 44.6979883 30.2265341 45.599283 30.876998 45.2537749 29.8243012 46.0906409 29.2216551 46.0906409 40.5038651 46.0906409 40.5038651zM46.0906409 23.9117594L46.0906409 24.7731846 45.8612461 24.0770124 46.0906409 23.9117594 46.0906409 23.9117594z"/>
    </g>
    <g transform="translate(0 46.43)">
      <g transform="translate(0 .196)">
        <mask id="b" fill="white">
          <use xlink:href="#a"/>
        </mask>
        <path fill="#26334D" d="M13.3414167,26.6828062 C16.5479408,26.6828062 18.7961528,25.8413357 20.270233,24.4875552 C22.334265,22.7316084 23.1448492,20.4268487 23.3661211,17.42663 C23.4764373,15.9998438 23.5503012,9.59755743 23.5503012,9.08524755 C23.5503012,8.57293767 23.5503012,3.37810279 23.6241651,3.01212181 C23.7344813,2.57313509 23.8451172,1.54883275 25.2088812,1.54883275 L26.7197334,1.54883275 C26.9042332,1.54883275 26.9410053,1.40250384 26.9410053,1.18285178 L26.9410053,0.377884084 C26.9410053,0.268375467 26.9042332,0.122046561 26.5723254,0.122046561 C26.2407373,0.122046561 25.0611534,0.231872594 22.5184451,0.231872594 C20.0489611,0.231872594 18.353609,0.122046561 17.9852489,0.122046561 C17.763977,0.122046561 17.7272049,0.195052306 17.7272049,0.377884084 L17.7272049,1.25617494 C17.7272049,1.43900672 17.763977,1.54883275 17.9852489,1.54883275 L19.606737,1.54883275 C20.565049,1.54883275 21.1546811,2.20747154 21.265317,3.15845072 C21.375953,4.07324445 21.4494971,6.19517229 21.4494971,8.97542151 L21.4494971,16.8048115 C21.4494971,19.512055 20.970501,21.707306 19.5331929,23.2439182 C18.2432928,24.560561 16.1057167,25.2557026 14.0049127,25.2557026 C11.8673366,25.2557026 9.50848854,24.5973813 8.14504433,22.6217823 C7.29736829,21.3778279 7.00255226,19.6583839 6.9657802,17.9754428 C6.92868838,16.8048115 6.78128036,12.158472 6.78128036,10.2193759 L6.78128036,7.80479026 C6.78128036,5.93901735 6.81837218,3.37810279 6.85514425,3.04862469 C6.92868838,2.24365699 7.55541226,1.54883275 8.62404044,1.54883275 L10.4668005,1.54883275 C10.7248445,1.54883275 10.7616166,1.47550959 10.7616166,1.29267781 L10.7616166,0.341381212 C10.7616166,0.195052306 10.7248445,0.122046561 10.4300285,0.122046561 C10.0245765,0.122046561 8.25536052,0.231872594 5.38074433,0.231872594 C2.50612813,0.231872594 0.700459871,0.122046561 0.331779952,0.122046561 C0.036963919,0.122046561 -0.000127902834,0.195052306 -0.000127902834,0.414704373 L-0.000127902834,1.21935465 C-0.000127902834,1.47550959 0.036963919,1.54883275 0.257916065,1.54883275 L1.99035995,1.54883275 C3.13285202,1.54883275 3.39057623,2.13414838 3.39057623,3.41460566 L3.39057623,12.1216517 C3.39057623,16.9146376 3.53798424,19.3657261 3.98052805,21.0121644 C4.57016012,23.316924 5.8600602,24.926542 8.36631623,25.9143414 C9.58235243,26.4266513 11.4251125,26.6828062 13.3414167,26.6828062" mask="url(#b)"/>
      </g>
      <path fill="#26334D" d="M42.8146743 14.2639577C42.8146743 12.6343425 42.7344153 10.1302454 42.934903 8.30161023 43.0148422 7.74517948 43.2150102 7.46712282 44.2161696 7.46712282L44.6165055 7.46712282C44.7767038 7.46712282 44.8566431 7.3477743 44.8566431 7.18874874L44.8566431 6.35426133C44.8566431 6.11556429 44.7767038 6.03621022 44.5765358 6.03621022 44.2961089 6.03621022 42.8946136 6.15524133 42.0536524 6.15524133 40.7723858 6.15524133 39.0504939 6.03621022 38.7703867 6.03621022 38.5702188 6.03621022 38.4899597 6.11556429 38.4899597 6.23491281L38.4899597 7.18874874C38.4899597 7.38745133 38.5702188 7.46712282 38.7703867 7.46712282L39.4508298 7.46712282C40.1315926 7.46712282 40.7324162 7.70550245 40.9325841 8.18257912 41.132752 8.65933838 41.2529807 10.9650503 41.2529807 11.9188862 41.33292 13.1907732 41.3728896 14.4233007 41.3728896 16.6887007L41.3728896 19.3121462 41.2130111 19.3121462C40.7324162 18.7953925 37.0085252 14.1446092 36.2877927 13.3101217 35.4468316 12.3162914 30.8420098 6.55296393 30.7221009 6.39393837 30.5615828 6.15524133 30.3214452 6.07588725 29.7609111 6.07588725 29.2803162 6.07588725 28.439355 6.15524133 27.7988816 6.15524133 27.3582563 6.15524133 26.7177829 6.11556429 26.1972184 6.07588725 25.6766538 6.07588725 25.2360286 6.03621022 25.1560893 6.03621022 24.995891 6.03621022 24.915632 6.15524133 24.915632 6.27458985L24.915632 7.22874319C24.915632 7.38745133 24.995891 7.46712282 25.1560893 7.46712282L25.5164555 7.46712282C26.6375239 7.46712282 27.6386833 8.14258467 27.6386833 9.57381469L27.6386833 13.7475214C27.6386833 18.2389618 27.5584243 21.06111 27.5184546 21.5381866 27.3985457 22.4523455 26.7577525 22.7307196 26.3570969 22.7307196L25.4361965 22.7307196C25.3162876 22.7307196 25.2759982 22.7700792 25.2759982 22.8497507L25.2759982 23.8832581C25.2759982 24.0819607 25.3162876 24.1616322 25.3962269 24.1616322 25.7166235 24.1616322 27.5184546 24.0422837 28.0789888 24.0422837 29.2403465 24.0422837 30.8420098 24.1616322 31.1224367 24.1616322 31.3226047 24.1616322 31.3226047 24.0819607 31.3226047 23.9229352L31.3226047 22.9690992C31.3226047 22.8100737 31.3226047 22.7307196 31.1224367 22.7307196L30.2814756 22.7307196C29.88082 22.7307196 29.4405145 22.29332 29.3202858 21.3791611 29.2403465 21.0214329 29.0801482 17.0464288 29.0801482 14.6616803L29.0801482 9.21608654 29.1600875 9.21608654C29.8008807 9.93154284 33.0444966 14.2242806 34.0053666 15.3371421 34.4459919 15.8538958 36.167564 17.8812336 38.0096846 20.0672796 39.6509977 22.0152633 41.0128431 23.6448785 41.2929503 23.9229352 41.4531486 24.0422837 41.8534845 24.3206578 42.2141705 24.3206578 42.6944456 24.3206578 42.8146743 23.9229352 42.8146743 23.565207L42.8146743 14.2639577zM51.5363046 13.8665842C51.5363046 13.5882102 51.5762742 8.85839013 51.5762742 8.46066753 51.6165636 7.6258627 51.9766101 7.46683715 53.0577088 7.46683715L53.7384717 7.46683715C53.9386396 7.46683715 53.978929 7.34780604 53.978929 7.18878048L53.978929 6.23462714C53.978929 6.11527862 53.89867 6.03592454 53.7384717 6.03592454 53.4183948 6.03592454 51.3761063 6.15527307 50.2147486 6.15527307 48.3329781 6.1949501 45.8503841 6.03592454 45.6099268 6.03592454 45.4497285 6.03592454 45.3697892 6.11527862 45.3697892 6.27430417L45.3697892 7.18878048C45.3697892 7.34780604 45.4097589 7.46683715 45.6099268 7.46683715L46.3306593 7.46683715C48.0125815 7.46683715 48.3729478 7.86455975 48.3729478 8.30164197 48.3729478 8.85839013 48.452887 12.8330768 48.452887 13.4688616L48.452887 15.2181428C48.452887 16.5693839 48.4129174 21.6175724 48.3729478 21.9753006 48.2930085 22.6907569 47.6522153 22.7307513 46.6510559 22.7307513L45.7701251 22.7307513C45.6099268 22.7307513 45.5299875 22.8497824 45.5299875 22.969131L45.5299875 23.8436128C45.5299875 24.0423154 45.6099268 24.1616639 45.7701251 24.1616639 46.0102627 24.1616639 48.3329781 24.0423154 49.6945038 24.0423154 51.496335 24.0423154 53.5782734 24.1616639 53.89867 24.1616639 54.0988379 24.1616639 54.1391273 24.0423154 54.1391273 23.8832899L54.1391273 22.9294539C54.1391273 22.8101054 54.0988379 22.7307513 53.89867 22.7307513L53.2981662 22.7307513C52.1368084 22.7307513 51.6565333 22.1740032 51.5762742 21.2598443 51.5363046 20.6637365 51.5363046 16.0926246 51.5363046 15.8539276L51.5363046 13.8665842zM94.5868957 8.18254738C94.5868957 7.46709108 95.1873995 7.30806552 95.7882231 7.30806552 97.3898863 7.30806552 98.5109547 7.66579367 99.5920534 8.34157294 100.312786 8.81833219 100.913609 9.89151665 100.913609 11.0840496 100.913609 12.117557 100.232847 15.2180793 95.7882231 15.2180793 95.2676585 15.2180793 94.8673227 15.1784022 94.5868957 15.1387252L94.5868957 8.18254738zM91.5437675 14.9796997C91.5034781 17.4041252 91.5437675 19.7495141 91.5034781 21.6971804 91.5034781 22.5716623 91.0228832 22.7306879 90.0623329 22.7306879L89.581738 22.7306879C89.4215397 22.7306879 89.3416005 22.8100419 89.3416005 22.9293904L89.3416005 23.8435493C89.3416005 24.0422519 89.4215397 24.1616005 89.581738 24.1616005 89.862165 24.1616005 91.9041338 24.0422519 92.9049734 24.0422519 94.2265295 24.0422519 96.3887269 24.1616005 96.6691538 24.1616005 96.9092914 24.1616005 96.9895504 24.081929 96.9895504 23.8832264L96.9895504 22.9293904C96.9895504 22.8100419 96.9092914 22.7306879 96.7494129 22.7306879L95.707964 22.7306879C94.9072923 22.7306879 94.6671547 22.2932882 94.5868957 21.7368575L94.5868957 17.4441197 94.5868957 16.4899663C94.8673227 16.4102948 95.2273691 16.4102948 95.6280248 16.4102948 97.309947 16.4102948 97.9104508 17.2850941 99.3519158 19.7495141 99.712282 20.3456219 101.474144 23.5651753 102.235165 24.1219234 102.915608 24.081929 103.876798 24.0422519 104.797699 24.0422519 105.198035 24.0422519 105.678949 24.081929 106.038676 24.081929 106.439332 24.1219234 106.759408 24.1616005 106.839667 24.1616005 106.999866 24.1616005 107.080125 24.0422519 107.080125 23.8832264L107.080125 23.0880986C107.080125 22.849719 107.039835 22.7306879 106.879637 22.7306879 106.158905 22.7306879 105.63866 22.6910108 105.078126 22.2932882 104.317104 21.7368575 103.396203 20.5443245 102.835669 19.7495141 101.193717 17.4441197 100.392725 16.2115922 99.4718247 16.0128897L99.4718247 15.9335356C102.635501 14.8206741 104.196875 13.2307359 104.196875 10.4879418 104.196875 9.57378295 103.67663 8.42092701 102.79538 7.5864396 101.79422 6.71195774 99.9923892 6.03617848 97.5900542 6.03617848 97.0698095 6.03617848 93.5857363 6.15520958 93.1051414 6.15520958 92.3844089 6.15520958 89.9021346 6.03617848 89.7019667 6.03617848 89.5417684 6.03617848 89.4618291 6.11553255 89.4618291 6.23488107L89.4618291 7.188717C89.4618291 7.34774256 89.5017988 7.46709108 89.6217077 7.46709108L90.0220436 7.46709108C91.1431119 7.46709108 91.5034781 7.9041733 91.5437675 8.69898367L91.5437675 12.5152796 91.5437675 14.9796997zM113.389188 24.5192334C117.03314 24.5192334 118.95488 21.9751419 118.95488 18.9939682 118.95488 17.0066248 118.474605 16.0131118 117.673613 15.178307 116.673093 14.1447996 115.191019 13.7074 113.349218 13.0319381 112.588516 12.753564 111.146731 12.1574563 110.545908 11.4020055 110.105922 10.8852518 109.905434 10.0507644 109.905434 9.45465662 109.905434 8.73920032 110.545908 7.02991363 112.748395 7.02991363 113.909752 7.02991363 114.790683 7.42731882 115.391507 8.10309808 116.232468 9.05693401 116.552545 10.4481696 116.793002 10.9252463 116.832972 11.0442774 116.913231 11.1239488 117.03314 11.0839544L117.753872 10.9252463C117.873781 10.8852518 117.913751 10.8058977 117.913751 10.6865492 117.873781 10.1301185 117.513415 7.54666734 117.513415 6.23478585 117.513415 6.03608325 117.473445 5.8770577 117.153049 5.8770577 116.832972 5.8770577 116.713063 5.8770577 116.632804 5.99640622L116.472605 6.27446288C116.392346 6.47316547 116.192498 6.43348844 115.791843 6.19479139 115.311248 5.95672918 114.470287 5.6783551 112.948882 5.6783551 111.507417 5.6783551 110.225831 6.03608325 109.185022 6.87057066 108.304091 7.62602141 107.46313 8.85823142 107.46313 10.2094725 107.46313 12.1574563 107.943405 13.4293433 108.864625 14.3038252 110.065633 15.3770096 111.987693 16.0924659 112.788364 16.37084 114.910912 17.1656504 116.472605 18.1594807 116.472605 20.4251982 116.472605 22.1341674 114.550546 23.1279978 113.269279 23.1279978 111.787525 23.1279978 110.465969 22.3331874 109.865145 21.1406545 109.144732 19.8290904 109.144732 18.9939682 109.144732 18.4375374 109.144732 18.2785119 108.984854 18.1991578 108.824655 18.1594807L108.103923 18.0798093C107.943405 18.0798093 107.863466 18.1991578 107.823496 18.3581833 107.783526 18.9939682 107.503099 22.1741619 107.383191 23.2870234 107.342901 23.485726 107.46313 23.6447515 107.703267 23.724423 108.023664 23.8037771 108.223832 23.724423 108.304091 23.5257204L108.424 23.2076693C108.504259 22.8896182 108.744716 22.9292952 109.024823 23.1279978 109.945404 23.8434541 111.346899 24.5192334 113.389188 24.5192334M125.737919 13.8665842C125.737919 13.5882102 125.778208 8.85839013 125.778208 8.46066753 125.818178 7.6258627 126.178544 7.46683715 127.259643 7.46683715L127.940406 7.46683715C128.140893 7.46683715 128.180863 7.34780604 128.180863 7.18878048L128.180863 6.23462714C128.180863 6.11527862 128.100924 6.03592454 127.940406 6.03592454 127.620009 6.03592454 125.57772 6.15527307 124.416682 6.15527307 122.534592 6.1949501 120.052318 6.03592454 119.811861 6.03592454 119.651982 6.03592454 119.571723 6.11527862 119.571723 6.27430417L119.571723 7.18878048C119.571723 7.34780604 119.611693 7.46683715 119.811861 7.46683715L120.532593 7.46683715C122.214196 7.46683715 122.574562 7.86455975 122.574562 8.30164197 122.574562 8.85839013 122.654821 12.8330768 122.654821 13.4688616L122.654821 15.2181428C122.654821 16.5693839 122.614532 21.6175724 122.574562 21.9753006 122.494303 22.6907569 121.853829 22.7307513 120.85299 22.7307513L119.972059 22.7307513C119.811861 22.7307513 119.731921 22.8497824 119.731921 22.969131L119.731921 23.8436128C119.731921 24.0423154 119.811861 24.1616639 119.972059 24.1616639 120.212197 24.1616639 122.534592 24.0423154 123.896118 24.0423154 125.697949 24.0423154 127.780207 24.1616639 128.100924 24.1616639 128.300772 24.1616639 128.340741 24.0423154 128.340741 23.8832899L128.340741 22.9294539C128.340741 22.8101054 128.300772 22.7307513 128.100924 22.7307513L127.5001 22.7307513C126.338742 22.7307513 125.858147 22.1740032 125.778208 21.2598443 125.737919 20.6637365 125.737919 16.0926246 125.737919 15.8539276L125.737919 13.8665842zM19.843677 35.575033C19.2354991 35.575033 18.6781625 35.097004 18.6781625 34.2920363 18.6781625 33.1099781 19.2860207 31.5752704 20.147766 30.2170461 21.4146436 28.179551 22.7576234 27.2234931 23.8220947 27.2234931 24.6582595 27.2234931 25.1142331 27.8522948 25.0889723 28.6321866 25.0889723 30.2925912 22.4791149 35.575033 19.843677 35.575033M20.2238682 36.7824845C23.8981969 36.7824845 26.1026022 31.7765123 26.1026022 29.0095946 26.1026022 27.2990382 25.0889723 26.0665108 23.3913819 26.0665108 20.0208225 26.0665108 17.6136911 30.3678188 17.6136911 33.5375378 17.6136911 35.4493361 18.8300471 36.7824845 20.2238682 36.7824845M61.1802423 37.4206182C61.1802423 37.1425615 61.2205316 32.4124241 61.2205316 32.0147015 61.2605013 31.1802141 61.6208675 31.0211885 62.7019662 31.0211885L63.3827291 31.0211885C63.582897 31.0211885 63.6228666 30.90184 63.6228666 30.7428144L63.6228666 29.7889785C63.6228666 29.66963 63.5429274 29.5902759 63.3827291 29.5902759 63.0623325 29.5902759 61.020044 29.709307 59.859006 29.709307 57.9769158 29.7493015 55.4943218 29.5902759 55.2541842 29.5902759 55.0939859 29.5902759 55.0137269 29.66963 55.0137269 29.8286555L55.0137269 30.7428144C55.0137269 30.90184 55.0540163 31.0211885 55.2541842 31.0211885L55.9749167 31.0211885C57.6565192 31.0211885 58.0168854 31.4185937 58.0168854 31.8556759 58.0168854 32.4124241 58.0971444 36.3874282 58.0971444 37.023213L58.0971444 38.7721767C58.0971444 40.1237352 58.056855 45.1716064 58.0168854 45.5293345 57.9369461 46.2447908 57.2964727 46.2847853 56.2953133 46.2847853L55.4143825 46.2847853C55.2541842 46.2847853 55.1742449 46.4038164 55.1742449 46.5231649L55.1742449 47.3976468C55.1742449 47.5963494 55.2541842 47.7156979 55.4143825 47.7156979 55.6545201 47.7156979 57.9769158 47.5963494 59.3384414 47.5963494 61.1402726 47.5963494 63.2225308 47.7156979 63.5429274 47.7156979 63.7430953 47.7156979 63.7830649 47.5963494 63.7830649 47.4373238L63.7830649 46.4834879C63.7830649 46.3641394 63.7430953 46.2847853 63.5429274 46.2847853L62.9421038 46.2847853C61.7807461 46.2847853 61.3004709 45.7280371 61.2205316 44.8138782 61.1802423 44.2177705 61.1802423 39.6466586 61.1802423 39.4082789L61.1802423 37.4206182zM70.5315702 31.7365813C70.5315702 31.021125 71.132074 30.8620995 71.7328976 30.8620995 73.3345608 30.8620995 74.4556291 31.2198276 75.5367278 31.8956069 76.2577801 32.3726836 76.8582839 33.445868 76.8582839 34.638401 76.8582839 35.671591 76.177521 38.7721132 71.7328976 38.7721132 71.212333 38.7721132 70.8116774 38.7324362 70.5315702 38.6927592L70.5315702 31.7365813zM67.2582169 38.5337336C67.2182473 40.9584766 67.2582169 43.3035481 67.2182473 45.2512144 67.2182473 46.1256963 66.7376524 46.2847218 65.7764626 46.2847218L65.2958677 46.2847218C65.1356694 46.2847218 65.0557301 46.3640759 65.0557301 46.4834244L65.0557301 47.3975833C65.0557301 47.5962859 65.1356694 47.7156344 65.2958677 47.7156344 65.5762946 47.7156344 67.6185831 47.5962859 68.6194228 47.5962859 69.9409788 47.5962859 72.1031763 47.7156344 72.3832835 47.7156344 72.623421 47.7156344 72.7036801 47.6359629 72.7036801 47.4372603L72.7036801 46.4834244C72.7036801 46.3640759 72.623421 46.2847218 72.4635425 46.2847218L71.4224134 46.2847218C70.6217417 46.2847218 70.3812844 45.8473222 70.3013451 45.2908914L70.3013451 40.9981536 70.3013451 40.0440003C70.5814523 39.9646462 70.9421383 39.9646462 71.3424742 39.9646462 73.0240767 39.9646462 73.6245805 40.8391281 75.0663652 43.3035481 75.4267314 43.8996559 77.1885929 47.1192092 77.949295 47.6759574 78.6300579 47.6359629 79.5909279 47.5962859 80.5118283 47.5962859 80.912484 47.5962859 81.3927591 47.6359629 81.7534451 47.6359629 82.153781 47.6759574 82.4738578 47.7156344 82.5541168 47.7156344 82.7143151 47.7156344 82.7942544 47.5962859 82.7942544 47.4372603L82.7942544 46.64245C82.7942544 46.4037529 82.7542848 46.2847218 82.5940865 46.2847218 81.873354 46.2847218 81.3527895 46.2447274 80.7922553 45.8473222 80.0315532 45.2908914 79.1106528 44.0983585 78.5497989 43.3035481 76.908166 40.9981536 76.1071745 39.7659436 75.1865938 39.567241L75.1865938 39.4875695C78.3496309 38.374708 79.9113245 36.7847699 79.9113245 34.0419758 79.9113245 33.1278169 79.3910797 31.974961 78.5098292 31.1404736 77.5089895 30.2659917 75.7071584 29.5902124 73.3045036 29.5902124 72.7839391 29.5902124 69.3001856 29.7092435 68.8195908 29.7092435 68.0988583 29.7092435 65.6162643 29.5902124 65.4164161 29.5902124 65.255898 29.5902124 65.175639 29.6695665 65.175639 29.788915L65.175639 30.742751C65.175639 30.9020939 65.2159284 31.021125 65.3358373 31.021125L65.7364929 31.021125C66.8575613 31.021125 67.2182473 31.4582073 67.2582169 32.253335L67.2582169 36.0693136 67.2582169 38.5337336z"/>
      <path fill="#26334D" d="M97.3170137,42.1905596 C97.3170137,41.5147804 98.0780355,41.3557548 98.4783714,41.3557548 L99.1591342,41.3557548 C99.2793629,41.3557548 99.3596219,41.2367237 99.3596219,41.1173752 L99.3596219,40.1632218 C99.3596219,40.0441907 99.2793629,39.9645192 99.1188448,39.9645192 C98.9589663,39.9645192 97.1571351,40.0441907 95.6753808,40.0441907 C93.5131834,40.0441907 91.5511539,39.9645192 91.3110163,39.9645192 C91.1504983,39.9645192 91.1105286,40.0441907 91.1105286,40.1632218 L91.1105286,41.1173752 C91.1105286,41.2367237 91.1504983,41.3160778 91.3110163,41.3160778 L92.2718864,41.3160778 C93.3130154,41.3160778 94.2335961,41.5944519 94.2335961,42.5086107 L94.2335961,43.9792004 C94.2335961,44.7743282 94.1536568,45.2910819 93.633412,45.6884871 C92.9926189,46.2052408 91.7113522,46.5629689 90.3098569,46.5629689 C89.1887886,46.5629689 87.5868056,45.9665437 86.4657372,44.7743282 C84.9043634,43.1443956 84.0234326,40.8789956 84.0234326,37.8181503 C84.0234326,36.0295096 84.9043634,33.9228177 86.105371,32.6109362 C87.5868056,31.0209981 89.1484992,30.5839158 90.3897962,30.5839158 C92.2319167,30.5839158 93.3529851,31.3790436 94.4340838,32.4919051 C95.3949538,33.445741 96.0757167,34.6779511 96.3561436,35.3140533 C96.4763723,35.631787 96.5563116,35.6717814 96.6765402,35.631787 L97.4372423,35.3934074 C97.557471,35.3537303 97.5974406,35.2743763 97.5974406,35.0753562 C97.5171816,34.3598999 96.9966171,30.6635873 96.9966171,30.4645673 C96.9966171,30.1865107 96.9166778,30.0274851 96.5563116,30.0274851 C96.235915,30.0274851 96.1156863,30.1465162 96.035747,30.3058592 L95.8355791,30.6635873 C95.7556398,30.7826184 95.5951218,30.7826184 95.2750449,30.5045618 C94.5140231,29.9478136 92.6325724,29.2323573 90.7105125,29.2323573 C87.8672325,29.2323573 85.4249279,30.0671621 83.5428377,31.6571003 C81.6207779,33.3263925 80.5796488,35.7511355 80.5796488,38.1758785 C80.5796488,41.2764007 81.3803205,43.4227696 82.9819838,45.1717334 C84.8643937,47.2387482 88.0674005,48.073553 90.1496586,48.073553 C92.7125116,48.073553 94.8743893,47.5168049 96.9966171,46.4832974 C97.277044,46.3642663 97.4372423,46.2449178 97.4372423,46.0462152 C97.4372423,45.8471952 97.3170137,45.609133 97.3170137,45.2510874 L97.3170137,42.1905596 Z"/>
      <path fill="#26334D" d="M105.130438 37.4206182C105.130438 37.1425615 105.170727 32.4124241 105.170727 32.0147015 105.210697 31.1802141 105.571063 31.0211885 106.652482 31.0211885L107.332925 31.0211885C107.533093 31.0211885 107.573382 30.90184 107.573382 30.7428144L107.573382 29.7889785C107.573382 29.66963 107.493123 29.5902759 107.332925 29.5902759 107.012848 29.5902759 104.970559 29.709307 103.809202 29.709307 101.927111 29.7493015 99.4448372 29.5902759 99.2043799 29.5902759 99.0441816 29.5902759 98.9642423 29.66963 98.9642423 29.8286555L98.9642423 30.7428144C98.9642423 30.90184 99.0042119 31.0211885 99.2043799 31.0211885L99.9254321 31.0211885C101.606715 31.0211885 101.967081 31.4185937 101.967081 31.8556759 101.967081 32.4124241 102.04734 36.3874282 102.04734 37.023213L102.04734 38.7721767C102.04734 40.1237352 102.007051 45.1716064 101.967081 45.5293345 101.887142 46.2447908 101.246349 46.2847853 100.245829 46.2847853L99.3648979 46.2847853C99.2043799 46.2847853 99.1244406 46.4038164 99.1244406 46.5231649L99.1244406 47.3976468C99.1244406 47.5963494 99.2043799 47.7156979 99.3648979 47.7156979 99.6050355 47.7156979 101.927111 47.5963494 103.288637 47.5963494 105.090468 47.5963494 107.173046 47.7156979 107.493123 47.7156979 107.693611 47.7156979 107.73358 47.5963494 107.73358 47.4373238L107.73358 46.4834879C107.73358 46.3641394 107.693611 46.2847853 107.493123 46.2847853L106.892619 46.2847853C105.731261 46.2847853 105.250986 45.7280371 105.170727 44.8138782 105.130438 44.2177705 105.130438 39.6466586 105.130438 39.4082789L105.130438 37.4206182zM126.689068 37.8181821C126.689068 36.1885669 126.608809 33.6844698 126.808977 31.8558346 126.889236 31.2994039 127.089404 31.0210298 128.090563 31.0210298L128.491219 31.0210298C128.651098 31.0210298 128.731037 30.9019987 128.731037 30.7429731L128.731037 29.9081683C128.731037 29.6697887 128.651098 29.5901172 128.45093 29.5901172 128.170503 29.5901172 126.769007 29.7094657 125.928046 29.7094657 124.647099 29.7094657 122.924888 29.5901172 122.644781 29.5901172 122.444932 29.5901172 122.364673 29.6697887 122.364673 29.7891372L122.364673 30.7429731C122.364673 30.9416757 122.444932 31.0210298 122.644781 31.0210298L123.325543 31.0210298C124.006306 31.0210298 124.60681 31.2594094 124.806978 31.7364861 125.007146 32.2135628 125.127375 34.5189572 125.127375 35.4731106 125.207314 36.7449976 125.247603 37.9772076 125.247603 40.2429251L125.247603 42.8663706 125.087085 42.8663706C124.60681 42.3492995 120.882919 37.6988336 120.162187 36.8643462 119.321545 35.8705158 114.716404 30.1068709 114.596495 29.9478454 114.436296 29.7094657 114.196159 29.6297942 113.635305 29.6297942 113.15503 29.6297942 112.314069 29.7094657 111.673275 29.7094657 111.23265 29.7094657 110.591857 29.6697887 110.071612 29.6297942 109.551048 29.6297942 109.110422 29.5901172 109.030483 29.5901172 108.870285 29.5901172 108.790026 29.7094657 108.790026 29.8288142L108.790026 30.7826502C108.790026 30.9416757 108.870285 31.0210298 109.030483 31.0210298L109.390849 31.0210298C110.511918 31.0210298 111.513077 31.6968091 111.513077 33.1277217L111.513077 37.3014284C111.513077 41.7931862 111.433138 44.6153344 111.393168 45.092411 111.27262 46.0065699 110.632146 46.2846266 110.23181 46.2846266L109.31059 46.2846266C109.190362 46.2846266 109.150392 46.3243036 109.150392 46.4039751L109.150392 47.4374825C109.150392 47.6361851 109.190362 47.7155392 109.270621 47.7155392 109.591017 47.7155392 111.393168 47.5965081 111.953702 47.5965081 113.11474 47.5965081 114.716404 47.7155392 114.996831 47.7155392 115.197318 47.7155392 115.197318 47.6361851 115.197318 47.4771596L115.197318 46.5230062C115.197318 46.3642981 115.197318 46.2846266 114.996831 46.2846266L114.156189 46.2846266C113.755534 46.2846266 113.314908 45.8472269 113.194999 44.9330681 113.11474 44.5756573 112.954862 40.6006532 112.954862 38.2155873L112.954862 32.7699935 113.034801 32.7699935C113.675594 33.4857672 116.91889 37.778505 117.87976 38.8913665 118.320066 39.4081202 120.041958 41.4351406 121.884078 43.621504 123.525711 45.5691703 124.886917 47.1991029 125.167344 47.4771596 125.327542 47.5965081 125.727878 47.8748822 126.088245 47.8748822 126.568839 47.8748822 126.689068 47.4771596 126.689068 47.1194314L126.689068 37.8181821zM28.9306938 27.4241955L26.675447 27.4241955C26.5488232 27.4241955 26.4864706 27.3013554 26.537312 27.1251893L26.638675 26.6976296C26.6895164 26.5214636 26.8644235 26.1183449 27.0671495 26.1183449L29.2718746 26.1183449C30.0319372 23.9551529 30.769297 22.1947622 32.1122768 20.7105237 32.821498 19.905556 34.2153191 18.9999673 35.8627076 18.9999673 37.3323112 18.9999673 38.1432152 19.8804801 38.1432152 20.4842059 38.1432152 21.2640977 37.6364002 21.6415056 37.1299049 21.6415056 36.3186812 21.6415056 36.0906944 21.1885526 36.0145922 20.635296 35.9893314 20.3835849 35.7360838 19.905556 34.9757015 19.905556 32.6190917 19.905556 32.1097187 23.228587 31.2735539 26.045974 31.2735539 26.045974 34.7953585 26.1396118 37.6699747 26.1396118 40.7658628 26.1396118 42.424123 26.0297857 42.7560309 26.0297857 43.087619 26.0297857 43.124391 26.1396118 43.124391 26.2859407L43.124391 27.1274112C43.124391 27.3105604 43.087619 27.4565719 42.829575 27.4565719L41.060359 27.4565719C40.0288227 27.4565719 39.5127347 27.78605 39.5127347 28.4078685 39.5127347 28.7005263 39.5495068 29.1395131 39.6601428 29.6518229 39.8814147 30.9687831 41.2448589 35.3224648 41.9083548 37.3710695 42.3505789 38.7616702 44.488155 45.0541306 45.335831 47.2858845 46.1835071 45.5664405 49.0581233 38.0300257 49.3529393 37.1882377 49.7212994 36.2004383 51.1218355 31.9930854 51.6746955 30.3834675 51.9695115 29.4686737 52.1907834 28.8103524 52.1907834 28.2980425 52.1907834 27.8593732 51.9327394 27.4565719 51.0115193 27.4565719L50.0532073 27.4565719C49.9057993 27.4565719 49.8687075 27.3470633 49.8687075 27.1274112L49.8687075 26.2859407C49.8687075 26.1031089 49.9057993 26.0297857 50.0899794 26.0297857 50.4215675 26.0297857 52.1169195 26.1396118 54.4389955 26.1396118 57.1294316 26.1396118 58.0506518 26.0297857 58.3822399 26.0297857 58.6035118 26.0297857 58.6402838 26.1031089 58.6402838 26.2859407L58.6402838 27.200417C58.6402838 27.3470633 58.6035118 27.4565719 58.3822399 27.4565719L57.3874756 27.4565719C56.1711196 27.4565719 55.4708516 28.0418875 54.7705836 28.8836755 53.8122716 30.0543068 50.8637915 37.5542187 50.2373874 39.0908309 49.7951633 40.2982825 45.041015 51.932224 44.8565152 52.2978876 44.7091071 52.5905454 44.5249271 52.7736946 44.340747 52.7736946 44.0456112 52.7736946 43.8985229 52.4077136 43.7140231 51.932224 42.534759 48.5663418 39.5495068 40.2249593 39.0701909 38.9076817L38.7018308 37.6640447C37.8173827 35.0663099 36.0849388 29.761649 35.6059427 28.6640235 35.2375825 27.8225529 34.8689026 27.4565719 34.0950905 27.4565719L30.667934 27.4241955C30.0089147 29.4616906 28.8434001 33.7658554 27.5762028 36.9857261 26.030497 40.9102611 24.2312239 43.7022547 21.5196838 43.7022547 20.5060538 43.7022547 19.6954696 43.0229838 19.6954696 42.2180161 19.6954696 41.6396837 20.1261824 41.1365789 20.784882 41.1365789 21.5196838 41.1365789 21.899875 41.8409256 21.9759772 42.2684853 22.0268185 42.5201964 22.203964 42.6960451 22.4070097 42.6960451 23.6230459 42.6960451 24.9916062 40.5830049 26.3598468 35.9293647L28.9306938 27.4241955zM135.581065 37.4206182L135.581065 39.4082789C135.581065 39.6466586 135.581065 44.2177705 135.621354 44.8138782 135.701294 45.7280371 136.181889 46.2847853 137.343246 46.2847853L137.805295 46.2847853C138.486058 46.2847853 139.126532 45.8870627 139.446928 45.4499805 139.727355 45.1319294 141.769004 40.3621149 142.730194 38.3747715 143.010621 37.8183408 145.372986 32.4124241 145.613444 31.7366448 145.693383 31.4982652 145.93384 31.0608656 145.653413 30.941517 145.573154 30.862163 145.453245 30.6634604 145.493215 30.5441118 145.453245 30.4647578 145.533185 30.3454092 145.893871 30.2660552 146.654573 30.1467067 147.775961 29.4312504 148.136327 29.1131992 148.216266 28.9541737 148.376465 28.8348252 148.616602 28.8348252 148.85674 28.8348252 148.936999 28.9938507 149.016938 29.2722248 149.577472 30.862163 151.619441 36.5461363 152.140005 38.1360745 152.740829 40.1237352 154.462721 44.8138782 154.743148 45.2112834 155.263712 45.9267397 155.944475 46.2847853 156.625238 46.2847853L157.38562 46.2847853C157.545819 46.2847853 157.585788 46.4038164 157.585788 46.5231649L157.585788 47.3579697C157.585788 47.4773183 157.545819 47.7156979 157.305681 47.7156979 156.825086 47.7156979 154.702858 47.5963494 153.781958 47.5963494 153.021256 47.5963494 150.658571 47.7156979 150.138006 47.7156979 149.857579 47.7156979 149.81761 47.5169953 149.81761 47.3579697L149.81761 46.5231649C149.81761 46.4038164 149.857579 46.2847853 150.018097 46.2847853L150.658571 46.2847853C151.139166 46.2847853 151.299364 45.9267397 151.299364 45.609006 151.139166 44.8138782 150.058067 41.6340019 149.737351 40.719843L143.290728 40.719843C143.13053 41.1969197 141.849263 44.4961445 141.689065 44.9732212 141.449247 45.7680316 141.569156 46.2847853 142.409797 46.2847853L143.410957 46.2847853C143.651414 46.2847853 143.691384 46.4038164 143.691384 46.562842L143.691384 47.4373238C143.691384 47.5963494 143.651414 47.7156979 143.451246 47.7156979 143.13053 47.7156979 141.008622 47.5963494 140.368148 47.5963494L133.739264 47.5963494C132.377739 47.5963494 130.055343 47.7156979 129.815525 47.7156979 129.655007 47.7156979 129.575068 47.5963494 129.575068 47.3976468L129.575068 46.5231649C129.575068 46.4038164 129.655007 46.2847853 129.815525 46.2847853L130.696136 46.2847853C131.696976 46.2847853 132.337769 46.2447908 132.417708 45.5293345 132.457678 45.1716064 132.497967 40.1237352 132.497967 38.7721767L132.497967 37.023213C132.497967 36.3874282 132.417708 32.4124241 132.417708 31.8556759 132.417708 31.4185937 132.057342 31.0211885 130.376059 31.0211885L129.655007 31.0211885C129.454839 31.0211885 129.414869 30.90184 129.414869 30.7428144L129.414869 29.8286555C129.414869 29.66963 129.494809 29.5902759 129.655007 29.5902759 129.895464 29.5902759 132.377739 29.7493015 134.259829 29.709307 135.421186 29.709307 137.463475 29.5902759 137.783872 29.5902759 137.94407 29.5902759 138.024009 29.66963 138.024009 29.7889785L138.024009 30.7428144C138.024009 30.90184 137.98404 31.0211885 137.783872 31.0211885L137.103109 31.0211885C136.02169 31.0211885 135.661324 31.1802141 135.621354 32.0147015 135.621354 32.4124241 135.581065 37.1425615 135.581065 37.4206182M143.891552 39.447956L149.337335 39.447956C149.177136 38.8915252 147.295366 32.9291778 147.215107 32.6111267 147.134848 32.372747 147.094878 32.2137215 146.974969 32.2137215 146.854741 32.2137215 146.774482 32.3327526 146.654573 32.6508037 146.534344 32.9688548 144.09172 39.0502334 143.891552 39.447956M62.3390419 6.31429862L62.3390419 7.22845752C62.3390419 7.38748308 62.219133 7.46683715 62.0589347 7.46683715L61.1377146 7.46683715C60.61715 7.46683715 60.0166462 7.54650863 60.0166462 8.06326234 60.0166462 8.97742124 60.6974091 10.5276824 61.7785078 13.8665842 62.0989044 14.8604146 63.5803389 19.4712035 63.8204765 20.1073058L63.9407052 20.1073058C64.1811625 19.2725009 66.1428722 14.3436609 66.3433599 13.7472357 67.8647641 9.33514939 68.3853287 8.26196493 68.3853287 7.86455975 68.3853287 7.66585716 68.2254501 7.46683715 67.5446873 7.46683715L67.104062 7.46683715C66.9438637 7.46683715 66.8636047 7.38748308 66.8636047 7.18878048L66.8636047 6.27430417C66.8636047 6.15527307 66.9438637 6.03592454 67.104062 6.03592454 67.3441996 6.03592454 69.4264577 6.15527307 70.3473581 6.15527307L76.468468 6.15527307 85.437974 6.11527862C85.8383099 6.11527862 86.3585547 6.03592454 86.5190727 6.03592454 86.599012 6.03592454 86.6789513 6.11527862 86.7592103 6.59235529 86.8391496 6.95008344 87.9605376 10.3686568 88.0404769 10.6470309 88.0804466 10.805739 88.0804466 10.8854105 88.0005073 10.9250875L87.3597141 11.2034616C87.2797748 11.2431387 87.1195765 11.2431387 86.9993479 11.0444361 86.9194086 10.9250875 84.9973487 8.69904716 84.3165859 8.06326234 83.835991 7.6258627 83.1951978 7.46683715 82.7948619 7.46683715L78.5504064 7.38748308 78.5504064 14.1446409C78.7908637 14.1446409 81.1532291 14.0256098 81.4733059 13.9459383 82.514435 13.6678816 82.9150906 13.1114509 82.9150906 11.8792409 82.9150906 11.7202153 82.9550602 11.6802209 83.1152585 11.6802209L83.9961893 11.7202153C84.1563876 11.7202153 84.2766163 11.7995694 84.2366466 11.958595 84.1563876 12.3163231 84.1563876 14.423015 84.1563876 14.7807431 84.1563876 15.655225 84.2766163 16.887435 84.3165859 17.4041887 84.3165859 17.5632143 84.2366466 17.6028913 84.116418 17.6028913L83.2751371 17.6822454C83.1552282 17.6822454 83.0749691 17.6822454 83.0349995 17.5235372 82.8348316 16.5297068 82.594694 15.8936046 81.5535649 15.655225 80.3522376 15.3768509 78.9507423 15.3768509 78.5504064 15.3768509L78.5504064 16.7287269C78.5504064 18.119645 78.6306654 20.4253569 78.6306654 20.9417932 78.6306654 22.8101054 79.7917034 22.9294539 81.5135953 22.9294539 83.2751371 22.9294539 84.3965252 22.8894595 85.7580508 21.816275 86.0784474 21.5778954 87.4799428 19.7892546 87.8805984 19.1531524 88.0804466 18.8747783 88.2802947 18.8351013 88.4005234 18.9147728L89.0413166 19.2725009C89.1212559 19.312178 89.2015149 19.4315265 89.1615453 19.5505576L87.7197606 23.7639413C87.6398213 23.9629613 87.4399731 24.1616639 87.2797748 24.1616639 86.9993479 24.1616639 84.8771201 24.0423154 76.468468 24.0423154 75.7477355 24.0423154 73.5452487 24.1616639 73.0646538 24.1616639 72.8644859 24.1616639 72.8245163 24.0423154 72.8245163 23.8832899L72.8245163 22.969131C72.8245163 22.8101054 72.9044555 22.7307513 73.1046235 22.7307513L73.4649897 22.7307513C75.3470799 22.7307513 75.4673086 22.5714084 75.4673086 22.0149776L75.4673086 16.0129531 75.4673086 13.5485331C75.4673086 11.4418413 75.4270192 8.85839013 75.3870495 8.46066753 75.2671406 7.6258627 75.0266833 7.46683715 73.4250201 7.46683715L73.1103791 7.46683715 73.0246842 7.46683715 72.4699057 7.46683715C71.7088838 7.46683715 71.1483496 7.70553419 70.7879834 8.06326234 70.0272813 8.81839568 67.8647641 14.0256098 67.4644282 15.0591172 67.104062 15.8936046 63.8204765 23.6845873 63.5003997 24.201341 63.380171 24.4000436 63.1800031 24.5193921 62.8596065 24.5193921 62.5392099 24.5193921 62.3390419 24.241018 62.219133 23.9229669 61.3382023 21.5778954 59.2156547 15.8142505 58.8952581 14.9397687L58.6151509 14.0652868C57.9347078 12.236969 56.7333805 8.61969308 56.4529535 8.2222879 56.1325569 7.78488826 55.8121603 7.46683715 55.2915958 7.46683715L54.8912599 7.46683715C54.7313814 7.46683715 54.691092 7.34780604 54.691092 7.22845752L54.691092 6.23462714C54.691092 6.11527862 54.771351 6.03592454 54.9315493 6.03592454 55.1317172 6.03592454 57.3338843 6.15527307 58.3750133 6.15527307 59.3358834 6.15527307 61.7785078 6.03592454 62.0186453 6.03592454 62.2591027 6.03592454 62.3390419 6.11527862 62.3390419 6.31429862"/>
      <g transform="translate(27.18 47.808)">
        <mask id="d" fill="white">
          <use xlink:href="#c"/>
        </mask>
        <path fill="#26334D" d="M3.8767349,11.8479119 C3.8767349,14.0860141 3.76577919,23.5443845 3.76577919,24.2414307 C3.76577919,24.7185073 3.54418753,25.2320869 2.17658648,25.2320869 L0.40257417,25.2320869 C0.180662753,25.2320869 0.143890688,25.3050926 0.143890688,25.4888766 L0.143890688,26.4062097 C0.143890688,26.5896763 0.180662753,26.6629995 0.439665992,26.6629995 C0.919941134,26.6629995 2.25045037,26.552856 5.17047207,26.552856 C9.1252277,26.552856 18.990693,26.5896763 19.9515631,26.6629995 C20.1734745,25.6723433 21.6517115,19.296085 21.7626672,19.0392952 C21.799759,18.8190083 21.799759,19.104683 21.6888033,19.0313598 L21.0972527,18.8110729 C20.9495249,18.7380671 20.8756611,18.8110729 20.8017972,18.9580366 C20.2844302,20.3889492 18.0665951,24.7915131 15.8858517,25.1219434 C14.7401621,25.2685897 8.20112972,25.195584 7.38830721,25.1219434 C7.27703174,23.6177077 7.27703174,15.6924579 7.27703174,15.0690523 L7.27703174,11.5911221 C7.27703174,9.02290699 7.38830721,3.48272319 7.38830721,3.00564652 C7.38830721,1.94166714 7.53603498,1.57473392 8.68172462,1.57473392 L10.89924,1.57473392 C11.1950153,1.57473392 11.269199,1.46459047 11.269199,1.28112386 L11.269199,0.437431379 C11.269199,0.253964768 11.2321071,0.143821318 10.9363318,0.143821318 C10.6037845,0.143821318 9.05136381,0.253964768 5.46624737,0.253964768 C2.3984979,0.253964768 1.06766891,0.143821318 0.661257652,0.143821318 C0.439665992,0.143821318 0.40257417,0.217144479 0.40257417,0.40061109 L0.40257417,1.2078007 C0.40257417,1.39126731 0.439665992,1.57473392 0.661257652,1.57473392 L2.3984979,1.57473392 C3.50741547,1.57473392 3.69191531,1.94166714 3.76577919,2.89550307 C3.80287101,3.55604635 3.8767349,7.44503065 3.8767349,9.79327631 L3.8767349,11.8479119 Z" mask="url(#d)"/>
      </g>
      <path fill="#26334D" d="M55.6213293 60.4421546C55.6213293 60.1609238 55.6616187 55.3796823 55.6616187 54.9781507 55.7019081 54.1341408 56.0664311 53.9738456 57.1593609 53.9738456L57.8471583 53.9738456C58.0495646 53.9738456 58.0901737 53.85291 58.0901737 53.6922973L58.0901737 52.7279867C58.0901737 52.6076859 58.0089554 52.5270622 57.8471583 52.5270622 57.5235642 52.5270622 55.4592124 52.6476803 54.2857039 52.6476803 52.383469 52.6879922 49.8740154 52.5270622 49.6313198 52.5270622 49.469203 52.5270622 49.3883044 52.6076859 49.3883044 52.7682985L49.3883044 53.6922973C49.3883044 53.85291 49.4289136 53.9738456 49.6313198 53.9738456L50.3597264 53.9738456C52.0595551 53.9738456 52.4237584 54.3753772 52.4237584 54.8172206 52.4237584 55.3796823 52.504657 59.3975376 52.504657 60.0403056L52.504657 61.8079968C52.504657 63.1738391 52.4643676 68.2766233 52.4237584 68.6381604 52.3428599 69.3612347 51.6953518 69.4015466 50.6833206 69.4015466L49.7931169 69.4015466C49.6313198 69.4015466 49.5501015 69.5218473 49.5501015 69.6424655L49.5501015 70.5264699C49.5501015 70.7273944 49.6313198 70.8480126 49.7931169 70.8480126 50.0358125 70.8480126 52.383469 70.7273944 53.7593838 70.7273944 55.5807201 70.7273944 57.6853613 70.8480126 58.0089554 70.8480126 58.2113617 70.8480126 58.2519708 70.7273944 58.2519708 70.5664643L58.2519708 69.6021537C58.2519708 69.4818529 58.2113617 69.4015466 58.0089554 69.4015466L57.4020565 69.4015466C56.2282282 69.4015466 55.7425172 68.8390849 55.6616187 67.9150861 55.6213293 67.3123126 55.6213293 62.6920012 55.6213293 62.4507648L55.6213293 60.4421546zM135.164517 62.571383C136.09533 61.1652289 140.790324 54.6166135 141.397223 54.2950709 141.761746 54.0941463 142.206848 53.9738456 142.854356 53.9738456L143.259168 53.9738456C143.420965 53.9738456 143.501864 53.8932218 143.501864 53.6922973L143.501864 52.8486049C143.501864 52.6076859 143.420965 52.5270622 143.218559 52.5270622 142.975863 52.5270622 141.559339 52.6476803 140.830933 52.6476803 139.616815 52.6476803 137.593073 52.5270622 137.350057 52.5270622 137.147651 52.5270622 137.066752 52.6476803 137.066752 52.8086104L137.066752 53.6922973C137.066752 53.85291 137.147651 53.9738456 137.350057 53.9738456L137.997565 53.9738456C138.888089 53.9738456 138.84716 54.4959954 138.523885 55.1387633 138.362088 55.460306 135.002401 60.3215364 134.395821 61.3258415 133.747994 60.3618483 130.388626 55.0181451 130.14593 54.656608 129.984133 54.4153716 130.024742 53.9738456 130.752829 53.9738456L131.360048 53.9738456C131.602743 53.9738456 131.643352 53.85291 131.643352 53.6922973L131.643352 52.8086104C131.643352 52.6076859 131.521845 52.5270622 131.360048 52.5270622 131.077063 52.5270622 128.324274 52.6476803 127.43439 52.6476803 126.462968 52.6476803 124.358327 52.5270622 124.115311 52.5270622 123.872296 52.5270622 123.792037 52.6476803 123.792037 52.7682985L123.792037 53.6519855C123.792037 53.8932218 123.872296 53.9738456 124.074702 53.9738456L124.641632 53.9738456C124.965226 53.9738456 125.693952 54.0538345 126.098445 54.4556835 126.745953 55.058457 131.683642 62.2498403 132.048165 62.973232L132.048165 64.419698C132.048165 66.7898454 132.048165 68.2363114 132.007556 68.5978485 131.967266 69.1603102 131.724251 69.4015466 130.429235 69.4015466L129.822016 69.4015466C129.660219 69.4015466 129.57932 69.5218473 129.57932 69.6424655L129.57932 70.5264699C129.57932 70.7673888 129.660219 70.8480126 129.862625 70.8480126 130.105321 70.8480126 132.452977 70.7273944 133.343501 70.7273944 134.678806 70.7273944 136.945245 70.8480126 137.18826 70.8480126 137.430956 70.8480126 137.512174 70.7273944 137.512174 70.5664643L137.512174 69.6021537C137.512174 69.4818529 137.430956 69.4015466 137.228549 69.4015466L136.702549 69.4015466C135.973823 69.4015466 135.326315 69.3612347 135.245736 68.5175422 135.164517 68.0353869 135.204807 66.950458 135.164517 65.9461529L135.164517 62.571383zM65.5712744 58.6743363C65.5712744 56.9869514 65.5712744 54.7770992 65.6115638 54.2549494 65.652173 53.9737186 65.7330715 53.7727941 65.9757672 53.7324822 66.2187825 53.6924878 66.5020873 53.6924878 66.8662906 53.6924878 67.6353064 53.6924878 69.173338 53.9737186 69.9826432 54.5761747 70.9943546 55.3395609 71.1970806 56.343866 71.1970806 57.1875585 71.1970806 58.0315684 70.7922681 59.0761854 69.6993384 59.8392541 68.8900332 60.3617213 67.4329002 60.5223339 65.5712744 60.4017157L65.5712744 58.6743363zM65.5712744 61.6472572C66.8662906 61.6472572 68.0401189 61.6072628 69.4160336 62.0891007 70.9540652 62.6115679 72.0469949 63.8571094 72.0469949 65.9060315 72.0469949 68.598039 69.9826432 69.6423386 68.1616266 69.6423386 66.137884 69.6423386 65.5712744 68.5174153 65.5712744 66.5891113L65.5712744 61.6472572zM59.8645698 53.6924878C59.8645698 53.9334067 59.8645698 53.9737186 60.066976 53.9737186L60.835672 53.9737186C61.6046878 53.9737186 62.3737036 54.0137131 62.4546021 55.3798727 62.4952113 55.8217162 62.5761098 58.6340245 62.5761098 59.638647L62.5761098 62.6115679C62.5761098 64.7407963 62.5761098 67.8346528 62.4546021 68.3971145 62.3334142 68.9192643 61.9688911 69.4014196 61.3619922 69.4014196L60.2690625 69.4014196C60.0263668 69.4014196 59.9860774 69.4414141 59.9860774 69.6023441L59.9860774 70.4460366C59.9860774 70.7272674 60.0263668 70.8478856 60.3096716 70.8478856 60.9977889 70.8478856 62.4546021 70.7272674 63.5475319 70.7272674 64.9237664 70.7272674 66.2590719 70.8478856 67.6353064 70.8478856 70.3874557 70.8478856 72.2896906 70.4460366 73.3826203 69.8835749 74.7179259 69.2808014 75.4872614 67.4328038 75.4872614 66.0266497 75.4872614 63.3346422 73.7062145 61.8081873 70.5898619 60.8838711L70.5898619 60.8038822C73.1396049 59.879566 74.3540423 59.236798 74.3540423 56.7054031 74.3540423 55.2189427 73.787113 54.0137131 72.2494012 53.2103325 71.3182685 52.7281771 69.6184399 52.5272526 67.3520017 52.5272526 66.3805796 52.5272526 64.8022587 52.6478708 63.9117352 52.6478708 63.2239377 52.6478708 60.4714687 52.5272526 60.1072654 52.5272526 59.9048591 52.5272526 59.8645698 52.6075589 59.8645698 52.8084834L59.8645698 53.6924878zM114.603881 54.6967294L114.603881 61.7278175C114.887186 61.7678119 115.291679 61.8081238 115.817999 61.8081238 120.310586 61.8081238 120.998383 58.6742729 120.998383 57.6296559 120.998383 56.4244262 120.391484 55.3394974 119.662758 54.8573421 118.570148 54.1745796 117.436929 53.8130425 115.817999 53.8130425 115.21078 53.8130425 114.603881 53.9736551 114.603881 54.6967294M111.527818 61.5668874L111.527818 59.0761219 111.527818 55.2188792C111.487529 54.4154986 111.123325 53.9736551 109.989786 53.9736551L109.585294 53.9736551C109.463786 53.9736551 109.423177 53.8530369 109.423177 53.6924243L109.423177 52.7281136C109.423177 52.6074954 109.504395 52.5271891 109.666192 52.5271891 109.868279 52.5271891 112.377732 52.6478073 113.106139 52.6478073 113.59185 52.6478073 117.113015 52.5271891 117.639335 52.5271891 120.06789 52.5271891 121.888907 53.210269 122.900618 54.0942733 123.790822 54.9379658 124.317142 56.1028836 124.317142 57.0271998 124.317142 59.7991962 122.738821 61.4062748 119.54125 62.5311981 120.472383 62.8124289 121.282008 64.0579704 122.941227 66.3881234 123.508157 67.1918214 124.43865 68.397051 125.207666 68.9595127 125.774595 69.3613617 126.300595 69.4016735 127.028682 69.4016735 127.190799 69.4016735 127.231408 69.5219743 127.231408 69.7632107L127.231408 70.5665913C127.231408 70.7272039 127.15051 70.8478221 126.988393 70.8478221 126.907494 70.8478221 126.5839 70.8075103 126.179088 70.7671984 125.814884 70.7671984 125.328853 70.7272039 124.924361 70.7272039 123.993548 70.7272039 123.022126 70.7671984 122.334328 70.8075103 121.565313 70.2450486 119.784266 66.9908969 119.420382 66.3881234 117.963249 63.8973578 117.355711 63.0133534 115.655882 63.0133534 115.251389 63.0133534 114.887186 63.0133534 114.603881 63.0936598L114.603881 64.0579704 114.603881 68.397051C114.68478 68.9595127 114.927795 69.4016735 115.7371 69.4016735L116.789421 69.4016735C116.951218 69.4016735 117.032116 69.4819799 117.032116 69.6022806L117.032116 70.5665913C117.032116 70.7671984 116.951218 70.8478221 116.708202 70.8478221 116.424898 70.8478221 114.239358 70.7272039 112.904052 70.7272039 112.22233 70.7272039 111.309104 70.7548192 110.291957 70.817985 109.95877 70.8240159 109.770753 70.8259204 109.437566 70.825603 108.329927 70.8243333 107.272491 70.7272039 106.599722 70.7272039 105.831026 70.7272039 103.44276 70.8478221 102.91644 70.8478221 102.633455 70.8478221 102.592846 70.6468976 102.592846 70.486285L102.592846 69.6422751C102.592846 69.5219743 102.633455 69.4016735 102.795252 69.4016735L103.44276 69.4016735C103.928471 69.4016735 104.090268 69.039819 104.090268 68.7182763 103.928471 67.9148957 102.835541 64.7007384 102.511947 63.7767396L95.9959373 63.7767396C95.8338204 64.2588949 94.5384845 67.593353 94.3766874 68.0755083 94.133672 68.8792063 94.2551797 69.4016735 95.1054138 69.4016735L96.1171252 69.4016735C96.3598208 69.4016735 96.4001102 69.5219743 96.4001102 69.6825869L96.4001102 70.5665913C96.4001102 70.7272039 96.3598208 70.8478221 96.1577344 70.8478221 96.0202388 70.8478221 93.7649921 70.7564062 92.2346347 70.7513276 90.859999 70.7468837 90.0935412 70.8043361 88.7105918 70.8075103 87.9415761 70.2450486 86.1605291 66.9908969 85.7963258 66.3881234 84.3395125 63.8973578 83.7322938 63.0133534 82.0324651 63.0133534 81.6276527 63.0133534 81.2634493 63.0133534 80.9801446 63.0936598L80.9801446 64.0579704 80.9801446 68.397051C81.0610431 68.9595127 81.3037387 69.4016735 82.1133637 69.4016735L83.1656842 69.4016735C83.3274813 69.4016735 83.4080601 69.4819799 83.4080601 69.6022806L83.4080601 70.5665913C83.4080601 70.7671984 83.3274813 70.8478221 83.0847857 70.8478221 82.8011612 70.8478221 80.6159412 70.7272039 79.2803159 70.7272039 78.2682847 70.7272039 76.2042527 70.8478221 75.920948 70.8478221 75.7591509 70.8478221 75.6782523 70.7272039 75.6782523 70.5265968L75.6782523 69.6022806C75.6782523 69.4819799 75.7591509 69.4016735 75.920948 69.4016735L76.406659 69.4016735C77.378081 69.4016735 77.863792 69.2407435 77.863792 68.3567391 77.9040814 66.3881234 77.863792 64.0176586 77.9040814 61.5668874L77.9040814 59.0761219 77.9040814 55.2188792C77.863792 54.4154986 77.4992689 53.9736551 76.3663696 53.9736551L75.9612373 53.9736551C75.8400494 53.9736551 75.7994403 53.8530369 75.7994403 53.6924243L75.7994403 52.7281136C75.7994403 52.6074954 75.8803388 52.5271891 76.0424556 52.5271891 76.2448619 52.5271891 78.7539957 52.6478073 79.4827221 52.6478073 79.9681134 52.6478073 83.4892784 52.5271891 84.0155986 52.5271891 86.4441536 52.5271891 88.2651702 53.210269 89.2768816 54.0942733 90.1674051 54.9379658 90.6937253 56.1028836 90.6937253 57.0271998 90.6937253 59.7991962 89.1150846 61.4062748 85.9175137 62.5311981 86.8486463 62.8124289 87.6579515 64.0579704 89.3174908 66.3881234 89.8841003 67.1918214 90.815233 68.397051 91.583929 68.9595127 91.8349383 68.8712709 91.9935378 68.7170066 92.1102492 68.5576636 92.393554 68.2364384 94.4575859 63.4152025 95.429008 61.4062748 95.7123127 60.8438131 98.1002586 55.3798093 98.343274 54.6967294 98.4241726 54.4558105 98.6668682 54.013967 98.3832437 53.8933488 98.3026649 53.8130425 98.1811572 53.612118 98.2220861 53.4914998 98.1811572 53.4111935 98.2623755 53.2905753 98.6265788 53.210269 99.3952748 53.0896508 100.528494 52.3665765 100.893017 52.0450338 100.973596 51.8844212 101.135713 51.763803 101.378728 51.763803 101.621104 51.763803 101.702322 51.924733 101.783221 52.2056464 102.34983 53.8130425 104.414182 59.5579598 104.940182 61.1653558 105.547401 63.1739661 107.287519 67.9148957 107.571144 68.3167447 108.097144 69.039819 108.785261 69.4016735 109.473379 69.4016735L110.030395 69.4016735C111.001498 69.4016735 111.487529 69.2407435 111.487529 68.3567391 111.527818 66.3881234 111.487529 64.0176586 111.527818 61.5668874M96.6025165 62.4912037L102.107135 62.4912037C101.945338 61.928742 100.043103 55.901959 99.9622042 55.5807338 99.8809859 55.3394974 99.8406965 55.1788848 99.7191888 55.1788848 99.5976811 55.1788848 99.5167825 55.2995029 99.3952748 55.6207282 99.2740869 55.9422709 96.8052425 62.0890372 96.6025165 62.4912037M80.9801446 54.6967294L80.9801446 61.7278175C81.2634493 61.7678119 81.6682618 61.8081238 82.1942622 61.8081238 86.6868493 61.8081238 87.3749665 58.6742729 87.3749665 57.6296559 87.3749665 56.4244262 86.767428 55.3394974 86.0393412 54.8573421 84.9464114 54.1745796 83.8131923 53.8130425 82.1942622 53.8130425 81.5873633 53.8130425 80.9801446 53.9736551 80.9801446 54.6967294"/>
      <g transform="translate(127.583 5.909)">
        <mask id="f" fill="white">
          <use xlink:href="#e"/>
        </mask>
        <path fill="#26334D" d="M1.5301016,0.0675461849 C1.57998371,0.0323129776 1.56463537,0.0319955613 1.6858233,0.0453270451 C2.30902986,0.114206378 4.58154347,0.325923039 8.98012193,0.325923039 L10.5821049,0.325923039 C11.8905509,0.325923039 13.3000402,0.272597103 14.825921,0.210066096 C15.5930182,0.188164372 20.2966449,0.246251552 21.257515,0.246251552 C22.1384457,0.246251552 24.8614971,0.12690303 25.141924,0.12690303 C25.3018026,0.12690303 25.4220312,0.2062571 25.4220312,0.40527711 L25.4220312,1.27975897 C25.4220312,1.43878453 25.3820616,1.55781563 25.141924,1.55781563 L24.5411005,1.55781563 C23.820368,1.55781563 23.7803984,1.99521527 23.9405967,2.2335949 C24.1807342,2.59132305 27.5042894,7.87820865 28.1447628,8.83204458 C28.7455864,7.83853161 32.0691415,3.02872268 32.2290201,2.71067157 C32.5494167,2.07456934 32.5897061,1.55781563 31.7087753,1.55781563 L31.0679821,1.55781563 C30.8678142,1.55781563 30.7875551,1.43878453 30.7875551,1.27975897 L30.7875551,0.40527711 C30.7875551,0.246251552 30.8678142,0.12690303 31.0679821,0.12690303 C31.3084394,0.12690303 33.3104385,0.246251552 34.5117659,0.246251552 C35.2321786,0.246251552 36.6339937,0.12690303 36.8738115,0.12690303 C37.0739794,0.12690303 37.1545582,0.2062571 37.1545582,0.444954145 L37.1545582,1.27975897 C37.1545582,1.47846156 37.0739794,1.55781563 36.9141009,1.55781563 L36.513765,1.55781563 C35.8729718,1.55781563 35.4323466,1.67716415 35.0719803,1.87586675 C34.4717963,2.19391786 29.8263653,8.67301902 28.9057847,10.0642546 L28.9057847,13.4031565 C28.9457543,14.3969868 28.9057847,15.4701713 28.985724,15.9469306 C29.0656632,16.7817354 29.7064564,16.8217298 30.4271889,16.8217298 L30.9477534,16.8217298 C31.1479214,16.8217298 31.2281804,16.9010839 31.2281804,17.0204324 L31.2281804,17.9742683 C31.2281804,18.1332939 31.1479214,18.2526424 30.9077838,18.2526424 C30.6676462,18.2526424 28.42487,18.1332939 27.1036338,18.1332939 C26.2230227,18.1332939 23.9003073,18.2526424 23.6601697,18.2526424 C23.4600018,18.2526424 23.3800625,18.1729709 23.3800625,17.9345913 L23.3800625,17.0601095 C23.3800625,16.9407609 23.4600018,16.8217298 23.6202001,16.8217298 L24.2207039,16.8217298 C25.5022903,16.8217298 25.7424278,16.5830328 25.7823975,16.026602 C25.8223671,15.6688739 25.8223671,14.2379613 25.8223671,11.8925724 L25.8223671,10.4616598 C25.4623206,9.74620347 20.5767521,2.6313175 19.9362787,2.0348923 C19.5973362,1.69874846 19.0288081,1.58987468 18.6684419,1.56448137 C18.9063411,2.64179224 19.2296155,4.05365986 19.3571986,4.73800937 C19.3971683,4.89671751 19.3169092,4.97638899 19.1570307,5.05574306 L18.4762678,5.25476307 C18.2358105,5.33411714 18.1159016,5.29444011 18.0356426,5.09573752 C17.5553674,4.10190714 16.8746046,2.79002564 16.0336435,2.0348923 C15.0328038,1.67716415 12.1031894,1.63748712 11.3824569,1.63748712 L11.3824569,8.31529087 C11.3824569,12.4889976 11.3824569,15.4701713 11.4224265,15.787905 C11.5023658,16.4240072 11.7028535,16.8217298 12.3436467,16.8217298 L13.8650509,16.8217298 C14.0655386,16.8217298 14.1454779,16.9407609 14.1454779,17.1791406 L14.1454779,18.0139454 C14.1454779,18.1332939 14.0655386,18.2526424 13.8650509,18.2526424 C13.5849437,18.2526424 11.1023497,18.1332939 9.78111343,18.1332939 C8.65972533,18.1332939 6.05690266,18.2526424 5.73650606,18.2526424 C5.49636849,18.2526424 5.41642922,18.1332939 5.41642922,17.8945969 L5.41642922,17.0997865 C5.41642922,16.9010839 5.49636849,16.8217298 5.65656679,16.8217298 L7.25823003,16.8217298 C7.85873383,16.8217298 8.1391608,16.5036787 8.17913043,16.1856276 C8.2993591,14.6750435 8.2993591,12.5683516 8.2993591,10.1836031 L8.2993591,1.63748712 C7.53865699,1.63748712 5.29012517,1.59749267 3.80869059,1.99521527 C2.80753116,2.7503486 1.96657003,4.02255307 1.44600549,5.05574306 C1.36606622,5.21476862 1.24583756,5.33411714 1.08563926,5.25476307 L0.364587028,4.97638899 C0.164419093,4.89671751 0.164419093,4.73800937 0.204708486,4.57866639 C0.436212616,3.85686177 1.13200403,1.40545582 1.45719699,0.202765521 C1.47446387,0.139599681 1.48085901,0.101827143 1.5301016,0.0675461849" mask="url(#f)"/>
      </g>
    </g>
  </g>
</svg>
